<svg width="98" height="100" viewBox="0 0 98 100" fill="none" xmlns="http://www.w3.org/2000/svg">
<path opacity="0.2" d="M85.7498 43.4819C85.752 50.6167 83.7364 57.602 79.9425 63.6074C76.1486 69.6128 70.7361 74.3857 64.3484 77.3585V80.7345C64.3484 81.5578 64.0263 82.3475 63.4529 82.9296C62.8796 83.5118 62.1019 83.8389 61.2911 83.8389H36.8323C36.0214 83.8389 35.2438 83.5118 34.6704 82.9296C34.0971 82.3475 33.775 81.5578 33.775 80.7345V77.3585C27.3873 74.3857 21.9748 69.6128 18.1809 63.6074C14.387 57.602 12.3713 50.6167 12.3735 43.4819H85.7498Z" fill="#D4D3D3"/>
<path d="M85.75 40.3775H82.5513C81.7831 31.8982 77.9226 24.0162 71.7271 18.2775C65.5316 12.5388 57.448 9.35742 49.0619 9.35742C40.6758 9.35742 32.5922 12.5388 26.3967 18.2775C20.2012 24.0162 16.3407 31.8982 15.5725 40.3775H12.3738C11.5629 40.3775 10.7852 40.7046 10.2119 41.2867C9.63852 41.8689 9.31641 42.6585 9.31641 43.4819C9.32984 50.8646 11.3308 58.103 15.1029 64.4145C18.8749 70.7259 24.2746 75.8702 30.7178 79.2909V80.7345C30.7178 82.3811 31.362 83.9603 32.5088 85.1247C33.6555 86.2891 35.2108 86.9432 36.8325 86.9432H61.2913C62.913 86.9432 64.4683 86.2891 65.615 85.1247C66.7617 83.9603 67.406 82.3811 67.406 80.7345V79.2909C73.8492 75.8702 79.2489 70.7259 83.0209 64.4145C86.793 58.103 88.794 50.8646 88.8074 43.4819C88.8074 42.6585 88.4853 41.8689 87.9119 41.2867C87.3385 40.7046 86.5609 40.3775 85.75 40.3775ZM66.4429 21.8404C67.1435 22.4225 67.8149 23.0369 68.4569 23.6837C60.3181 26.5907 53.5925 32.5653 49.6734 40.3697H38.3994C40.3103 34.931 43.8282 30.2239 48.4727 26.8915C53.1172 23.5591 58.6616 21.7639 64.3486 21.7512C65.048 21.7512 65.7474 21.7861 66.4429 21.8404ZM72.5232 28.9029C74.6346 32.3901 75.9593 36.3088 76.4022 40.3775H56.7511C60.4578 34.7309 66.0657 30.6511 72.5232 28.9029ZM49.0619 15.5424C51.5153 15.5447 53.9573 15.8801 56.3231 16.5397C50.5616 17.9909 45.2788 20.9586 41.0068 25.1436C36.7349 29.3286 33.625 34.5831 31.9904 40.3775H21.7216C22.48 33.5512 25.6859 27.247 30.7282 22.6668C35.7704 18.0865 42.2964 15.5506 49.0619 15.5424ZM63.0722 74.5257C62.5389 74.7745 62.0874 75.1739 61.7716 75.6762C61.4558 76.1785 61.289 76.7625 61.2913 77.3584V80.7345H36.8325V77.3584C36.8348 76.7625 36.668 76.1785 36.3522 75.6762C36.0364 75.1739 35.5849 74.7745 35.0516 74.5257C29.675 72.0135 25.0437 68.1094 21.6226 63.2054C18.2016 58.3014 16.1111 52.5699 15.561 46.5863H82.5513C82.0023 52.5687 79.9136 58.2993 76.4946 63.2032C73.0756 68.1072 68.4467 72.0119 63.0722 74.5257Z" fill="#D4D3D3"/>
</svg>
