<svg width="44" height="41" viewBox="0 0 44 41" fill="none" xmlns="http://www.w3.org/2000/svg">
<mask id="path-1-inside-1_3_1504" fill="white">
<path d="M37.0041 31.3589C35.0359 28.3151 31.9625 25.9434 28.2788 24.6256C30.1107 23.415 31.4639 21.7272 32.1466 19.8012C32.8294 17.8753 32.8071 15.8089 32.083 13.8947C31.3589 11.9806 29.9696 10.3157 28.112 9.13592C26.2544 7.95614 24.0226 7.32129 21.7328 7.32129C19.4429 7.32129 17.2111 7.95614 15.3535 9.13592C13.4959 10.3157 12.1066 11.9806 11.3825 13.8947C10.6584 15.8089 10.6362 17.8753 11.3189 19.8012C12.0017 21.7272 13.3548 23.415 15.1867 24.6256C11.503 25.9434 8.42967 28.3151 6.46148 31.3589C6.33952 31.5317 6.25824 31.7243 6.22246 31.9253C6.18668 32.1264 6.19714 32.3317 6.25321 32.5291C6.30928 32.7265 6.40982 32.9119 6.54886 33.0744C6.68789 33.2369 6.86258 33.373 7.06253 33.4748C7.26249 33.5766 7.48363 33.642 7.71281 33.6669C7.94199 33.6919 8.17453 33.6761 8.39661 33.6203C8.61869 33.5645 8.82578 33.4699 9.00555 33.3422C9.18533 33.2145 9.33412 33.0562 9.4431 32.8768C12.0443 28.915 16.638 26.5521 21.7328 26.5521C26.8275 26.5521 31.4212 28.9163 34.0224 32.8768C34.2586 33.2114 34.6332 33.452 35.067 33.5477C35.5008 33.6433 35.9598 33.5866 36.347 33.3895C36.7343 33.1924 37.0193 32.8703 37.1419 32.4913C37.2645 32.1124 37.2151 31.7063 37.0041 31.3589ZM14.268 16.9386C14.268 15.6377 14.7058 14.3659 15.526 13.2842C16.3462 12.2026 17.5121 11.3595 18.8761 10.8616C20.2401 10.3638 21.741 10.2335 23.1891 10.4873C24.6371 10.7411 25.9672 11.3676 27.0112 12.2875C28.0552 13.2074 28.7661 14.3794 29.0541 15.6554C29.3422 16.9313 29.1943 18.2539 28.6294 19.4558C28.0644 20.6577 27.1076 21.685 25.88 22.4077C24.6524 23.1305 23.2092 23.5163 21.7328 23.5163C19.7537 23.5143 17.8563 22.8206 16.4569 21.5875C15.0574 20.3544 14.2702 18.6825 14.268 16.9386Z"/>
</mask>
<path d="M37.0041 31.3589C35.0359 28.3151 31.9625 25.9434 28.2788 24.6256C30.1107 23.415 31.4639 21.7272 32.1466 19.8012C32.8294 17.8753 32.8071 15.8089 32.083 13.8947C31.3589 11.9806 29.9696 10.3157 28.112 9.13592C26.2544 7.95614 24.0226 7.32129 21.7328 7.32129C19.4429 7.32129 17.2111 7.95614 15.3535 9.13592C13.4959 10.3157 12.1066 11.9806 11.3825 13.8947C10.6584 15.8089 10.6362 17.8753 11.3189 19.8012C12.0017 21.7272 13.3548 23.415 15.1867 24.6256C11.503 25.9434 8.42967 28.3151 6.46148 31.3589C6.33952 31.5317 6.25824 31.7243 6.22246 31.9253C6.18668 32.1264 6.19714 32.3317 6.25321 32.5291C6.30928 32.7265 6.40982 32.9119 6.54886 33.0744C6.68789 33.2369 6.86258 33.373 7.06253 33.4748C7.26249 33.5766 7.48363 33.642 7.71281 33.6669C7.94199 33.6919 8.17453 33.6761 8.39661 33.6203C8.61869 33.5645 8.82578 33.4699 9.00555 33.3422C9.18533 33.2145 9.33412 33.0562 9.4431 32.8768C12.0443 28.915 16.638 26.5521 21.7328 26.5521C26.8275 26.5521 31.4212 28.9163 34.0224 32.8768C34.2586 33.2114 34.6332 33.452 35.067 33.5477C35.5008 33.6433 35.9598 33.5866 36.347 33.3895C36.7343 33.1924 37.0193 32.8703 37.1419 32.4913C37.2645 32.1124 37.2151 31.7063 37.0041 31.3589ZM14.268 16.9386C14.268 15.6377 14.7058 14.3659 15.526 13.2842C16.3462 12.2026 17.5121 11.3595 18.8761 10.8616C20.2401 10.3638 21.741 10.2335 23.1891 10.4873C24.6371 10.7411 25.9672 11.3676 27.0112 12.2875C28.0552 13.2074 28.7661 14.3794 29.0541 15.6554C29.3422 16.9313 29.1943 18.2539 28.6294 19.4558C28.0644 20.6577 27.1076 21.685 25.88 22.4077C24.6524 23.1305 23.2092 23.5163 21.7328 23.5163C19.7537 23.5143 17.8563 22.8206 16.4569 21.5875C15.0574 20.3544 14.2702 18.6825 14.268 16.9386Z" fill="black"/>
<path d="M37.0041 31.3589L520.755 -262.48L516.62 -269.286L512.296 -275.974L37.0041 31.3589ZM28.2788 24.6256L-283.783 -447.575L-1227.92 176.375L-162.364 557.553L28.2788 24.6256ZM21.7328 7.32129V-558.679V7.32129ZM15.1867 24.6256L205.829 557.553L1271.39 176.375L327.249 -447.575L15.1867 24.6256ZM6.46148 31.3589L468.886 357.733L475.513 348.343L481.753 338.692L6.46148 31.3589ZM9.4431 32.8768L-463.69 -277.77L-469.146 -269.459L-474.308 -260.962L9.4431 32.8768ZM34.0224 32.8768L-439.065 343.593L-433.864 351.511L-428.402 359.251L34.0224 32.8768ZM14.268 16.9386H-551.732V17.3085L-551.732 17.6785L14.268 16.9386ZM21.7328 23.5163L21.1583 589.516L21.4455 589.516H21.7328V23.5163ZM512.296 -275.974C437.318 -391.928 329.812 -468.633 218.921 -508.302L-162.364 557.553C-265.887 520.52 -367.246 448.558 -438.288 338.692L512.296 -275.974ZM340.341 496.826C436.634 433.189 520.701 335.618 565.616 208.92L-501.323 -169.318C-457.773 -292.164 -376.413 -386.359 -283.783 -447.575L340.341 496.826ZM565.616 208.92C611.111 80.5874 609.485 -59.4418 561.47 -186.368L-497.304 214.157C-543.871 91.0596 -545.453 -44.8367 -501.323 -169.318L565.616 208.92ZM561.47 -186.368C514.089 -311.62 428.498 -407.081 331.554 -468.649L-275.33 486.921C-368.558 427.712 -451.371 335.581 -497.304 214.157L561.47 -186.368ZM331.554 -468.649C235.18 -529.857 126.908 -558.679 21.7328 -558.679V573.321C-78.8625 573.321 -182.672 545.769 -275.33 486.921L331.554 -468.649ZM21.7328 -558.679C-83.4421 -558.679 -191.715 -529.857 -288.089 -468.649L318.796 486.921C226.137 545.769 122.328 573.321 21.7328 573.321V-558.679ZM-288.089 -468.649C-385.032 -407.081 -470.623 -311.62 -518.005 -186.368L540.77 214.157C494.836 335.581 412.024 427.712 318.796 486.921L-288.089 -468.649ZM-518.005 -186.368C-566.02 -59.442 -567.646 80.5871 -522.151 208.92L544.789 -169.318C588.918 -44.8365 587.336 91.0598 540.77 214.157L-518.005 -186.368ZM-522.151 208.92C-477.235 335.619 -393.169 433.189 -296.875 496.826L327.249 -447.575C419.878 -386.359 501.239 -292.164 544.789 -169.318L-522.151 208.92ZM-175.456 -508.302C-286.346 -468.633 -393.852 -391.928 -468.83 -275.974L481.753 338.692C410.712 448.558 309.352 520.52 205.829 557.553L-175.456 -508.302ZM-455.963 -295.015C-502.216 -229.481 -535.905 -152.18 -551.021 -67.2505L563.466 131.101C548.422 215.629 514.895 292.544 468.886 357.733L-455.963 -295.015ZM-551.021 -67.2505C-566.171 17.8728 -561.59 104.868 -538.207 187.187L550.714 -122.128C573.984 -40.205 578.544 46.3799 563.466 131.101L-551.021 -67.2505ZM-538.207 187.187C-514.901 269.233 -474.422 341.554 -423.491 401.072L436.588 -334.923C487.242 -275.73 527.52 -203.78 550.714 -122.128L-538.207 187.187ZM-423.491 401.072C-372.739 460.379 -312.742 505.79 -249.723 537.873L263.848 -470.923C326.468 -439.044 386.115 -393.905 436.588 -334.923L-423.491 401.072ZM-249.723 537.873C-186.753 569.93 -120.087 589.089 -53.6232 596.334L69.0488 -529C135.054 -521.805 201.278 -502.777 263.848 -470.923L-249.723 537.873ZM-53.6232 596.334C12.8446 603.579 80.5532 599.08 146.3 582.563L-129.507 -515.323C-64.2041 -531.728 3.03934 -536.195 69.0488 -529L-53.6232 596.334ZM146.3 582.563C212.052 566.046 277.124 537.157 336.811 494.753L-318.8 -428.068C-259.472 -470.217 -194.814 -498.917 -129.507 -515.323L146.3 582.563ZM336.811 494.753C396.601 452.275 451.045 396.107 493.194 326.715L-474.308 -260.962C-432.376 -329.994 -378.23 -385.846 -318.8 -428.068L336.811 494.753ZM482.576 343.523C371.447 512.779 190.11 592.552 21.7328 592.552V-539.448C-156.834 -539.448 -347.358 -454.949 -463.69 -277.77L482.576 343.523ZM21.7328 592.552C-146.734 592.552 -327.987 512.717 -439.065 343.593L507.11 -277.839C390.83 -454.884 200.389 -539.448 21.7328 -539.448V592.552ZM-428.402 359.251C-339.637 485.018 -212.332 558.586 -86.8357 586.264L156.97 -519.169C281.599 -491.682 408.154 -418.595 496.447 -293.497L-428.402 359.251ZM-86.8357 586.264C38.4919 613.906 173.103 598.894 293.133 537.787L-220.439 -471.008C-101.183 -531.721 32.5097 -546.619 156.97 -519.169L-86.8357 586.264ZM293.133 537.787C414.139 476.184 524.785 363.955 575.656 206.728L-501.372 -141.745C-450.747 -298.215 -340.671 -409.799 -220.439 -471.008L293.133 537.787ZM575.656 206.728C627.622 46.1174 604.377 -124.812 520.755 -262.48L-446.747 325.197C-529.946 188.225 -553.093 18.1074 -501.372 -141.745L575.656 206.728ZM580.268 16.9386C580.268 144.765 536.839 262.546 466.523 355.274L-435.471 -328.706C-507.428 -233.814 -551.732 -113.49 -551.732 16.9386H580.268ZM466.523 355.274C397.062 446.877 306.22 508.506 212.937 542.554L-175.185 -520.83C-271.196 -485.787 -364.369 -422.472 -435.471 -328.706L466.523 355.274ZM212.937 542.554C119.78 576.555 20.5854 584.659 -74.5258 567.989L120.904 -547.014C22.8967 -564.192 -79.2993 -555.827 -175.185 -520.83L212.937 542.554ZM-74.5258 567.989C-169.649 551.316 -265.561 508.868 -347.181 436.948L401.203 -412.373C317.495 -486.133 218.924 -529.834 120.904 -547.014L-74.5258 567.989ZM-347.181 436.948C-429.501 364.41 -495.379 262.88 -523.053 140.288L581.162 -108.977C552.912 -234.121 485.612 -337.996 401.203 -412.373L-347.181 436.948ZM-523.053 140.288C-550.955 16.6891 -535.723 -110.448 -483.598 -221.332L540.857 260.243C594.111 146.956 609.639 17.1735 581.162 -108.977L-523.053 140.288ZM-483.598 -221.332C-432.129 -330.823 -350.724 -412.676 -261.287 -465.333L313.047 510.148C404.939 456.045 488.258 372.138 540.857 260.243L-483.598 -221.332ZM-261.287 -465.333C-172.235 -517.765 -73.9369 -542.484 21.7328 -542.484V589.516C120.355 589.516 221.539 564.026 313.047 510.148L-261.287 -465.333ZM22.3072 -542.483C148.762 -542.355 282.165 -498.664 390.649 -403.073L-357.735 446.248C-246.453 544.305 -109.254 589.384 21.1583 589.516L22.3072 -542.483ZM390.649 -403.073C501.427 -305.46 580.042 -156.66 580.267 16.1987L-551.732 17.6785C-551.501 194.025 -471.312 346.169 -357.735 446.248L390.649 -403.073Z" fill="black" mask="url(#path-1-inside-1_3_1504)"/>
<path d="M42.4088 20.5C42.4088 31.2165 33.1937 40 21.7044 40C10.2151 40 1 31.2165 1 20.5C1 9.78347 10.2151 1 21.7044 1C33.1937 1 42.4088 9.78347 42.4088 20.5Z" stroke="black" stroke-width="2"/>
</svg>
