<svg width="97" height="73" viewBox="0 0 97 73" fill="none" xmlns="http://www.w3.org/2000/svg">
<path d="M48.268 0.566895H14.5525C10.7203 0.566895 7.04499 1.9941 4.33518 4.53454C1.62538 7.07498 0.103027 10.5206 0.103027 14.1133V50.237C0.103027 53.8297 1.62538 57.2753 4.33518 59.8157C7.04499 62.3562 10.7203 63.7834 14.5525 63.7834L9.73602 68.2989V72.8143H14.5525L24.1855 63.6479L33.8185 63.7834V41.2061H9.73602V9.59782H53.0845V18.6287H62.7175V14.1133C62.7175 10.5206 61.1951 7.07498 58.4853 4.53454C55.7755 1.9941 52.1002 0.566895 48.268 0.566895ZM14.5525 45.7215C15.8299 45.7215 17.055 46.1973 17.9583 47.0441C18.8616 47.8909 19.369 49.0394 19.369 50.237C19.369 51.4346 18.8616 52.5831 17.9583 53.4299C17.055 54.2767 15.8299 54.7525 14.5525 54.7525C13.2751 54.7525 12.05 54.2767 11.1467 53.4299C10.2435 52.5831 9.73602 51.4346 9.73602 50.237C9.73602 49.0394 10.2435 47.8909 11.1467 47.0441C12.05 46.1973 13.2751 45.7215 14.5525 45.7215ZM89.5453 26.1244C88.871 24.3182 87.0408 23.1442 84.8733 23.1442H50.2427C48.0272 23.1442 46.245 24.3182 45.5226 26.1244L38.635 44.683V69.5632C38.635 71.2791 40.1763 72.8143 42.0065 72.8143H44.9928C46.823 72.8143 48.268 71.0984 48.268 69.3826V63.7834H86.7999V69.3826C86.7999 71.0984 88.2931 72.8143 90.1233 72.8143H93.0614C94.8916 72.8143 96.4329 71.2791 96.4329 69.5632V44.683L89.5453 26.1244ZM50.2427 27.6597H84.8733L89.8343 41.2061H45.2817L50.2427 27.6597ZM48.268 54.7525C46.9906 54.7525 45.7655 54.2767 44.8622 53.4299C43.9589 52.5831 43.4515 51.4346 43.4515 50.237C43.4515 49.0394 43.9589 47.8909 44.8622 47.0441C45.7655 46.1973 46.9906 45.7215 48.268 45.7215C49.5454 45.7215 50.7705 46.1973 51.6738 47.0441C52.577 47.8909 53.0845 49.0394 53.0845 50.237C53.0845 51.4346 52.577 52.5831 51.6738 53.4299C50.7705 54.2767 49.5454 54.7525 48.268 54.7525ZM86.7999 54.7525C85.5225 54.7525 84.2974 54.2767 83.3942 53.4299C82.4909 52.5831 81.9834 51.4346 81.9834 50.237C81.9834 49.0394 82.4909 47.8909 83.3942 47.0441C84.2974 46.1973 85.5225 45.7215 86.7999 45.7215C88.0773 45.7215 89.3024 46.1973 90.2057 47.0441C91.109 47.8909 91.6164 49.0394 91.6164 50.237C91.6164 51.4346 91.109 52.5831 90.2057 53.4299C89.3024 54.2767 88.0773 54.7525 86.7999 54.7525Z" fill="#D4D3D3"/>
</svg>
