<svg width="43" height="41" viewBox="0 0 43 41" fill="none" xmlns="http://www.w3.org/2000/svg">
<path fill-rule="evenodd" clip-rule="evenodd" d="M1.79175 20.5C1.79175 10.1219 10.6157 1.70837 21.5001 1.70837C32.3845 1.70837 41.2084 10.1219 41.2084 20.5C41.2084 30.8782 32.3845 39.2917 21.5001 39.2917C10.6157 39.2917 1.79175 30.8782 1.79175 20.5ZM23.2917 10.25C23.2917 9.79696 23.103 9.36244 22.767 9.04207C22.431 8.72169 21.9753 8.54171 21.5001 8.54171C21.0249 8.54171 20.5692 8.72169 20.2332 9.04207C19.8972 9.36244 19.7084 9.79696 19.7084 10.25V11.9584C18.2829 11.9584 16.9157 12.4983 15.9077 13.4595C14.8997 14.4206 14.3334 15.7241 14.3334 17.0834C14.3334 18.4426 14.8997 19.7462 15.9077 20.7073C16.9157 21.6684 18.2829 22.2084 19.7084 22.2084H23.2917C23.7669 22.2084 24.2226 22.3884 24.5586 22.7087C24.8947 23.0291 25.0834 23.4636 25.0834 23.9167C25.0834 24.3698 24.8947 24.8043 24.5586 25.1247C24.2226 25.4451 23.7669 25.625 23.2917 25.625H16.1251C15.6499 25.625 15.1942 25.805 14.8582 26.1254C14.5222 26.4458 14.3334 26.8803 14.3334 27.3334C14.3334 27.7865 14.5222 28.221 14.8582 28.5414C15.1942 28.8617 15.6499 29.0417 16.1251 29.0417H19.7084V30.75C19.7084 31.2031 19.8972 31.6376 20.2332 31.958C20.5692 32.2784 21.0249 32.4584 21.5001 32.4584C21.9753 32.4584 22.431 32.2784 22.767 31.958C23.103 31.6376 23.2917 31.2031 23.2917 30.75V29.0417C23.9976 29.0417 24.6965 28.9091 25.3487 28.6516C26.0008 28.394 26.5933 28.0165 27.0924 27.5406C27.5916 27.0647 27.9875 26.4998 28.2576 25.878C28.5277 25.2562 28.6667 24.5897 28.6667 23.9167C28.6667 23.2437 28.5277 22.5772 28.2576 21.9555C27.9875 21.3337 27.5916 20.7687 27.0924 20.2928C26.5933 19.8169 26.0008 19.4394 25.3487 19.1818C24.6965 18.9243 23.9976 18.7917 23.2917 18.7917H19.7084C19.2332 18.7917 18.7775 18.6117 18.4415 18.2913C18.1055 17.971 17.9167 17.5365 17.9167 17.0834C17.9167 16.6303 18.1055 16.1958 18.4415 15.8754C18.7775 15.555 19.2332 15.375 19.7084 15.375H26.8751C27.3503 15.375 27.806 15.1951 28.142 14.8747C28.478 14.5543 28.6667 14.1198 28.6667 13.6667C28.6667 13.2136 28.478 12.7791 28.142 12.4587C27.806 12.1384 27.3503 11.9584 26.8751 11.9584H23.2917V10.25Z" fill="black"/>
</svg>
