<svg width="45" height="44" viewBox="0 0 45 44" fill="none" xmlns="http://www.w3.org/2000/svg">
<path d="M35.7939 26.4752V34.6152C35.7934 35.7669 35.3253 36.8713 34.4924 37.6857C33.6595 38.5001 32.5299 38.9578 31.352 38.9583H9.60016C9.0147 38.9581 8.43505 38.8448 7.89453 38.6248C7.35402 38.4048 6.86328 38.0826 6.45052 37.6766C6.03775 37.2707 5.71111 36.7889 5.48934 36.2592C5.26758 35.7294 5.15507 35.1619 5.15828 34.5895V13.3448C5.1548 12.7733 5.26736 12.2067 5.48945 11.6781C5.71153 11.1494 6.03872 10.669 6.45206 10.2649C6.86539 9.86071 7.35665 9.54079 7.89737 9.32364C8.43808 9.10649 9.0175 8.99643 9.60203 8.99983H17.9252" stroke="black" stroke-width="1.5" stroke-linecap="round" stroke-linejoin="round"/>
<path d="M35.794 16.4907L28.1347 8.99973M12.8159 28.9721V25.0029C12.8197 24.3484 13.0859 23.7196 13.5565 23.2557L31.429 5.7804C31.6662 5.54593 31.9486 5.35978 32.2598 5.23274C32.571 5.1057 32.9049 5.04028 33.2422 5.04028C33.5794 5.04028 33.9133 5.1057 34.2246 5.23274C34.5358 5.35978 34.8181 5.54593 35.0553 5.7804L39.0884 9.7239C39.3282 9.95578 39.5186 10.2319 39.6485 10.5362C39.7785 10.8405 39.8454 11.167 39.8454 11.4967C39.8454 11.8265 39.7785 12.153 39.6485 12.4573C39.5186 12.7616 39.3282 13.0377 39.0884 13.2696L21.2159 30.7449C20.7407 31.2064 20.0988 31.4665 19.429 31.4691H15.3697C15.0342 31.4695 14.7019 31.4053 14.3918 31.28C14.0818 31.1547 13.8 30.9707 13.5628 30.7388C13.3256 30.5068 13.1375 30.2314 13.0093 29.9282C12.8811 29.625 12.8154 29.3001 12.8159 28.9721Z" stroke="black" stroke-width="1.5" stroke-linecap="round" stroke-linejoin="round"/>
</svg>
