<svg width="85" height="98" viewBox="0 0 85 98" fill="none" xmlns="http://www.w3.org/2000/svg">
  <path d="M77.0258 42.8029H74.3918V30.5735H69.1237V42.8029H63.8557V30.5735H58.5876V42.8029H55.9536C55.255 42.8029 54.5851 43.125 54.0911 43.6984C53.5971 44.2717 53.3196 45.0494 53.3196 45.8602V58.0896C53.3245 61.6116 54.375 65.0241 56.2941 67.7522C58.2132 70.4804 60.8836 72.3575 63.8557 73.0676V82.5484C63.8557 83.3592 63.5782 84.1369 63.0842 84.7102C62.5902 85.2836 61.9202 85.6057 61.2217 85.6057H13.8093C13.1107 85.6057 12.4407 85.2836 11.9468 84.7102C11.4528 84.1369 11.1753 83.3592 11.1753 82.5484C11.1753 81.7375 11.4528 80.9599 11.9468 80.3865C12.4407 79.8131 13.1107 79.491 13.8093 79.491H26.9794C29.0751 79.491 31.0851 78.5247 32.567 76.8046C34.0489 75.0845 34.8815 72.7516 34.8815 70.319C34.8815 67.8864 34.0489 65.5535 32.567 63.8334C31.0851 62.1133 29.0751 61.147 26.9794 61.147H13.8093C13.1107 61.147 12.4407 60.8248 11.9468 60.2515C11.4528 59.6781 11.1753 58.9005 11.1753 58.0896C11.1753 57.2788 11.4528 56.5011 11.9468 55.9277C12.4407 55.3544 13.1107 55.0323 13.8093 55.0323H26.9794C29.0745 55.0298 31.0832 54.0627 32.5647 52.3432C34.0462 50.6236 34.8794 48.2921 34.8815 45.8602V33.6309H37.5155C40.3087 33.6268 42.9866 32.3371 44.9618 30.0445C46.9369 27.7519 48.0481 24.6437 48.0516 21.4015V12.2294H40.1495C37.4527 12.2344 34.8612 13.4454 32.9138 15.6109C31.5502 12.7362 29.5471 10.3387 27.1134 8.66849C24.6797 6.99824 21.9046 6.11635 19.0773 6.11475H11.1753V15.2868C11.1801 20.1502 12.8468 24.8128 15.8096 28.2517C18.7724 31.6907 22.7894 33.6252 26.9794 33.6309H29.6134V45.8602C29.6134 46.6711 29.3359 47.4487 28.8419 48.0221C28.3479 48.5955 27.678 48.9176 26.9794 48.9176H13.8093C11.7135 48.9176 9.70361 49.8839 8.22169 51.604C6.73976 53.3241 5.90723 55.657 5.90723 58.0896C5.90723 60.5222 6.73976 62.8551 8.22169 64.5752C9.70361 66.2953 11.7135 67.2617 13.8093 67.2617H26.9794C27.678 67.2617 28.3479 67.5838 28.8419 68.1571C29.3359 68.7305 29.6134 69.5081 29.6134 70.319C29.6134 71.1299 29.3359 71.9075 28.8419 72.4809C28.3479 73.0542 27.678 73.3763 26.9794 73.3763H13.8093C11.7135 73.3763 9.70361 74.3427 8.22169 76.0628C6.73976 77.7829 5.90723 80.1158 5.90723 82.5484C5.90723 84.9809 6.73976 87.3139 8.22169 89.034C9.70361 90.7541 11.7135 91.7204 13.8093 91.7204H61.2217C63.3168 91.718 65.3255 90.7509 66.8069 89.0313C68.2884 87.3117 69.1216 84.9802 69.1237 82.5484V73.0676C72.0958 72.3575 74.7662 70.4804 76.6853 67.7522C78.6044 65.0241 79.6549 61.6116 79.6598 58.0896V45.8602C79.6598 45.0494 79.3823 44.2717 78.8883 43.6984C78.3943 43.125 77.7244 42.8029 77.0258 42.8029ZM34.8815 24.4588C34.8815 22.8371 35.4365 21.2818 36.4244 20.1351C37.4124 18.9884 38.7523 18.3441 40.1495 18.3441H42.7835V21.4015C42.7835 23.0232 42.2285 24.5785 41.2405 25.7252C40.2526 26.8719 38.9126 27.5162 37.5155 27.5162H34.8815V24.4588ZM26.9794 27.5162C24.1861 27.5121 21.5082 26.2224 19.5331 23.9298C17.558 21.6372 16.4468 18.529 16.4433 15.2868V12.2294H19.0773C21.8706 12.2335 24.5485 13.5232 26.5236 15.8158C28.4988 18.1084 29.6099 21.2166 29.6134 24.4588V27.5162H26.9794ZM74.3918 58.0896C74.3918 60.5222 73.5592 62.8551 72.0773 64.5752C70.5954 66.2953 68.5855 67.2617 66.4897 67.2617C64.3939 67.2617 62.384 66.2953 60.9021 64.5752C59.4202 62.8551 58.5876 60.5222 58.5876 58.0896V48.9176H74.3918V58.0896Z" fill="#D4D3D3"/>
</svg>
