<svg width="41" height="39" viewBox="0 0 41 39" fill="none" xmlns="http://www.w3.org/2000/svg">
<path d="M25.6248 30.875C25.6248 32.168 25.0848 33.4079 24.1237 34.3222C23.1626 35.2364 21.859 35.75 20.4998 35.75C19.1406 35.75 17.837 35.2364 16.8759 34.3222C15.9147 33.4079 15.3748 32.168 15.3748 30.875M21.7315 8.1299L19.2271 8.12503C13.5144 8.11203 8.55513 12.5272 8.51583 17.875V24.0338C8.51583 25.3175 8.345 26.5704 7.60871 27.638L7.11842 28.3498C6.37187 29.4288 7.17479 30.875 8.51583 30.875H32.4838C33.8248 30.875 34.626 29.4288 33.8812 28.3498L33.3909 27.638C32.6563 26.5704 32.4838 25.3159 32.4838 24.0322V17.8767C32.4154 12.5272 27.4442 8.1429 21.7315 8.1299Z" stroke="#222222" stroke-width="2" stroke-linecap="round" stroke-linejoin="round"/>
<path d="M20.4997 3.25C21.4058 3.25 22.2749 3.59241 22.9156 4.2019C23.5564 4.8114 23.9163 5.63805 23.9163 6.5V8.125H17.083V6.5C17.083 5.63805 17.443 4.8114 18.0837 4.2019C18.7245 3.59241 19.5935 3.25 20.4997 3.25Z" stroke="#222222" stroke-width="2" stroke-linecap="round" stroke-linejoin="round"/>
</svg>
