<svg width="93" height="88" viewBox="0 0 93 88" fill="none" xmlns="http://www.w3.org/2000/svg">
<g clip-path="url(#clip0_10_2917)">
<path d="M22.884 41.8941C21.8984 41.3034 20.286 42.0291 20.659 43.1735C21.3892 44.9973 21.9673 46.8005 22.4967 48.6188C22.4565 49.736 22.3288 50.9159 22.6229 52.0085L22.7391 52.3604C22.7563 52.4122 22.7736 52.4668 22.7936 52.5132C22.9228 52.8242 23.092 53.1229 23.3158 53.4339C23.5238 53.6235 23.8366 53.7831 23.8739 53.8977C23.7428 54.1579 23.6175 54.4208 23.498 54.6861C23.894 55.8619 24.2985 57.035 24.7375 58.2053C25.0087 58.9215 25.2769 59.6417 25.5581 60.3592C26.3593 60.6349 27.188 60.8319 28.0314 60.9471C28.3958 61.0016 28.8749 61.0848 29.2737 61.123C31.0942 61.6591 32.6709 62.5294 34.5 63.1009C34.5478 63.1245 34.5951 63.15 34.642 63.1773C34.6621 63.15 34.6994 63.2646 34.6994 63.2646C36.0479 62.3479 37.4553 61.3263 38.392 60.0645C38.5771 59.8135 38.7995 59.5557 39.2499 59.3225C41.0073 57.9025 42.835 59.8749 44.7129 59.5762C46.7185 59.2379 48.1631 57.1837 49.9018 55.8837C50.1213 55.705 50.3365 55.5291 50.4743 55.4199C51.0266 54.9916 51.5201 54.5279 51.8673 53.9645C51.9792 53.7995 52.1097 53.5771 52.2402 53.333C53.0049 51.3728 54.0981 49.0471 53.3808 47.2507C52.9016 45.7611 50.8975 44.4653 49.4055 43.2349C49.1774 43.2622 48.6035 43.0535 48.2148 43.029C46.268 42.8994 44.1706 43.3222 43.1277 42.4792C42.8719 42.2491 42.639 41.997 42.4319 41.7263C41.3115 40.1276 39.9988 38.1279 38.3404 37.4882C37.4423 37.1636 36.6648 37.4746 36.1153 38.0543C35.8404 38.3114 35.5501 38.5532 35.246 38.7786C33.6622 39.7348 32.0855 40.575 30.5104 41.4139C31.1746 41.4276 31.8331 41.4603 32.4858 41.5012C31.8259 41.483 31.1808 41.4921 30.5505 41.5285C29.4487 41.5967 28.3226 41.9923 27.1964 42.2924C26.8258 42.3921 26.451 42.4777 26.0731 42.5488C25.2583 42.7029 24.3574 43.595 23.6429 43.4286C23.2097 43.3031 23.3919 42.246 22.884 41.8941ZM23.6171 52.5636C23.7161 52.9183 23.8136 53.3111 23.9126 53.7285C23.7626 53.3866 23.6248 53.0399 23.4995 52.6891C23.1595 51.7711 22.993 50.8013 22.8496 49.826L23.6171 52.5677M36.3061 41.8027C36.3879 41.8436 36.9359 41.9104 37.2071 41.9459C38.5527 42.1273 40.2441 42.1273 41.7347 42.572C42.0991 42.6293 42.4821 42.7343 42.8407 42.8189C42.4925 42.7565 42.1417 42.7078 41.7892 42.6729C40.4837 42.2719 38.9931 42.5024 37.7823 42.437C37.4967 42.4233 37.2131 42.3827 36.9359 42.3156C35.9996 41.9559 35.0159 41.72 34.0122 41.6144C34.784 41.6758 35.5429 41.7413 36.3061 41.8027Z" fill="#D4D3D3"/>
<path d="M37.7822 61.7055C36.2544 61.1831 34.6763 60.8107 33.0925 60.7002C32.9158 60.705 32.7392 60.715 32.5631 60.7302C31.1142 60.8598 29.6653 60.6238 28.2794 60.351C29.6638 60.6238 31.0783 60.8052 32.5402 60.6784C32.8329 60.6552 33.1671 60.6293 33.893 60.6893C35.2215 60.9634 36.5241 61.2608 37.7966 61.6823C36.2242 61.5254 34.8241 61.0644 33.2804 60.9157C32.9663 60.9444 32.5761 60.9539 32.2834 60.9648C30.8215 61.0426 29.3482 60.8611 28.3167 60.2228C27.169 59.4098 27.5047 57.6174 27.895 56.117C27.8447 56.0338 27.5736 55.9574 27.3871 55.8415C27.1745 55.6515 26.9871 55.4376 26.829 55.2044C26.0802 54.1078 26.106 52.6701 25.8004 51.4751C26.3327 52.7328 26.6813 54.0818 27.4015 55.2385C27.5492 55.4691 27.7142 55.7241 27.8993 55.9792C27.7616 55.6911 27.62 55.4046 27.4746 55.1199C26.2466 52.7764 25.1176 50.5244 23.6299 48.286C23.1507 47.4512 24.2798 46.6491 25.1405 46.9588C25.5967 47.1552 25.6283 48.0064 25.9841 48.0364C26.5651 48.0582 27.1145 47.2302 27.7199 46.9888C28.0053 46.883 28.2832 46.76 28.552 46.6205C29.3755 46.2222 30.1817 45.7489 31.0224 45.5265C32.6177 45.131 34.3937 44.8595 36.1095 45.1773C36.3199 45.1892 36.5451 45.1792 36.7852 45.1473C37.7334 45.015 38.851 44.614 39.9313 44.7299C40.2067 44.7027 40.4869 44.6881 40.7719 44.6863C40.4793 44.6754 40.1594 44.6535 39.8739 44.6576C38.643 44.5376 37.3346 44.79 36.2587 44.85C36.0392 44.8636 35.6031 44.8923 35.5342 44.8718C34.0408 45.0423 32.5273 45.1773 30.9779 45.4406C32.0841 44.5522 33.1629 43.6333 34.2129 42.6852C34.4133 42.4662 34.5987 42.2352 34.7681 41.9937C35.0966 41.463 35.649 41.1043 36.4007 41.2189C37.7894 41.4685 39.1365 42.8285 40.2713 43.8965C40.4748 44.0785 40.6985 44.239 40.9383 44.3753C41.8866 44.8745 43.4403 44.2321 44.971 44.0425C45.278 44.0015 45.7572 44.0806 45.9308 44.0206C47.2879 44.7545 49.0567 45.4597 49.6808 46.5373C50.5301 47.8277 50.0681 49.7987 49.7984 51.4329C49.7458 51.6171 49.685 51.7991 49.6162 51.9785C49.4369 52.4641 49.1342 52.8992 48.7784 53.3152C48.6838 53.4203 48.5503 53.584 48.4054 53.7599C47.2735 55.0271 46.4931 56.8372 44.9968 57.3978C43.5866 57.9107 41.845 56.6558 40.7117 58.0185C40.4739 58.2103 40.2879 58.4535 40.1694 58.7278C39.6615 59.8395 38.7362 60.8461 37.8382 61.7601C37.8382 61.7601 37.7966 61.6768 37.7822 61.7014" fill="#D4D3D3"/>
<path d="M18.9403 35.2526C20.0708 34.0931 21.2228 32.5518 22.7592 31.3678C23.0777 31.0595 23.4622 30.7499 23.8051 30.4566C23.4914 30.7503 23.1958 31.0486 22.9185 31.3514C21.5542 32.3922 20.8096 33.8408 19.9087 34.917C19.6942 35.1786 19.4551 35.421 19.1943 35.6413C19.0261 35.752 18.8615 35.8676 18.7008 35.9878C18.903 36.6603 18.9547 37.345 18.8858 38.0066C18.9136 38.0739 18.9384 38.1398 18.9604 38.2044C19.0996 38.63 19.1742 39.0637 19.2029 39.4934C19.5386 40.0895 19.7294 40.7592 19.7165 41.4685C19.6998 42.1092 19.7425 42.7501 19.8441 43.3837C19.847 43.2841 20.2114 44.6863 20.2659 44.85C20.7221 46.2277 21.24 47.5754 21.6704 48.9558C21.9621 49.9015 22.2567 50.8445 22.5541 51.7848C22.9319 51.8248 23.3302 51.8721 23.7491 51.9267C23.3446 51.9312 22.9582 51.9271 22.59 51.9144L22.7463 52.3932L23.0003 52.355C23.3603 52.2431 23.7635 52.0153 23.9213 52.029C25.4003 53.509 27.3127 55.1472 29.6353 54.5456C29.8662 54.4706 30.1044 54.3861 30.3382 54.2892C30.1446 54.4215 29.9509 54.547 29.7572 54.6766L30.3497 54.2837C32.0569 53.5908 33.6809 52.3468 35.0437 50.9705C35.3522 50.6554 35.7811 50.2462 36.0953 49.8997C37.9674 48.4497 40.0648 47.3448 41.9829 45.899C42.0451 45.8653 42.1067 45.8335 42.1679 45.8035C42.1536 45.7748 42.3128 45.7844 42.3128 45.7844C42.1507 44.198 41.9083 42.5175 41.0647 41.1848C40.8439 40.8685 40.7404 40.4912 40.7706 40.1127C40.303 37.9616 43.8651 37.0586 44.7918 35.228C45.7616 33.2747 44.327 31.1659 43.9827 29.0775C43.9196 28.8034 43.855 28.5415 43.8263 28.3764C43.7001 27.7067 43.4892 27.0738 43.0631 26.5445C42.91 26.3425 42.7472 26.1472 42.5754 25.9593C40.7893 24.5039 38.7966 22.6079 36.1971 22.5669C34.1141 22.4319 31.2248 23.7564 28.7688 24.6335C28.6454 24.8585 28.0056 25.2978 27.7115 25.6415C26.2353 27.367 25.3071 29.4431 23.6028 30.0665C23.1571 30.2123 22.7012 30.328 22.2385 30.4129C21.0535 30.5944 19.7451 30.7785 18.4942 31.0418C18.4636 31.22 18.4215 31.3941 18.3679 31.5642C18.3737 31.8052 18.3622 32.043 18.3335 32.2776C18.4827 32.9037 18.5071 33.5352 18.421 34.1491C18.5702 34.6074 18.6491 35.0712 18.6721 35.5308L18.9403 35.258" fill="#D4D3D3"/>
<path d="M18.8868 38.0133C18.9098 38.0788 18.9384 38.1388 18.9585 38.2057C19.0977 38.6312 19.1752 39.065 19.201 39.4947C19.5367 40.0908 19.7275 40.7605 19.7146 41.4698C19.6979 42.1105 19.7406 42.7514 19.8422 43.3849C19.8451 43.2854 20.2095 44.6876 20.264 44.8513C20.7202 46.229 21.2381 47.5767 21.6685 48.9571C21.7316 49.1699 21.7971 49.3836 21.865 49.5982C22.3681 49.5572 22.8707 49.5204 23.3728 49.4877C24.6812 49.7223 26.0426 50.0456 27.4743 49.8423C27.8387 49.7905 28.2031 49.7046 28.6048 49.5791C28.8716 49.4495 29.1428 49.234 29.2747 49.2244C30.7682 50.1602 32.6518 51.1586 34.3848 50.4234C34.5589 50.3407 34.7291 50.2497 34.8955 50.1506C34.765 50.2747 34.6416 50.3907 34.511 50.508C34.6387 50.3907 34.7721 50.2693 34.8984 50.1479C36.1235 49.4236 37.1579 48.2914 37.9613 47.0992C38.1434 46.8251 38.4002 46.4677 38.5796 46.1703C39.7703 44.8581 41.2178 43.7805 42.4458 42.4683L42.5721 42.3755C42.5548 42.3565 42.6854 42.3455 42.6854 42.3455C42.2206 41.1752 41.6654 39.9448 40.7042 39.0473C40.4699 38.8435 40.3101 38.574 40.248 38.278C39.4102 36.7229 42.0771 35.6222 42.43 34.1381C42.7944 32.5558 41.1934 31.1467 40.4775 29.6217C40.3837 29.4542 40.2924 29.2855 40.2035 29.1157C39.9582 28.6273 39.6584 28.1786 39.2007 27.8334C39.0702 27.7202 38.8851 27.592 38.6872 27.4542C36.9456 26.5758 34.9429 25.3945 32.8512 25.6742C31.1555 25.8215 29.1241 27.1596 27.3352 28.1131C27.2864 28.2945 26.8675 28.701 26.7025 28.9943C25.8848 30.4647 25.5878 32.1288 24.3541 32.8013C24.024 32.963 23.6833 33.1043 23.3341 33.2242C21.7775 33.7002 19.9484 34.2213 18.6128 34.9688C18.6606 35.2743 18.6797 35.5776 18.6702 35.8786C18.9011 36.5893 18.9686 37.3177 18.8868 38.0188M27.8172 49.2176C28.216 49.1958 28.6521 49.1794 29.1112 49.1685C28.7103 49.2333 28.3075 49.2865 27.9033 49.3281C26.8431 49.4522 25.7915 49.4345 24.7428 49.399C25.76 49.3376 26.78 49.2803 27.8172 49.2176ZM24.5922 33.0714C24.4014 33.3292 24.2336 33.587 24.0729 33.8489C23.2035 34.7915 22.9166 35.9673 22.4231 36.8784C22.3054 37.1026 22.1631 37.3143 21.9985 37.51C21.3239 38.1455 20.7373 38.8601 20.2525 39.6365C20.5854 39.0596 20.9225 38.4853 21.2496 37.9138C21.3185 37.8565 21.581 37.4472 21.7144 37.2495C22.3729 36.2414 22.9682 34.9497 23.9509 33.8762C24.1432 33.6088 24.3828 33.3292 24.5922 33.0714Z" fill="#D4D3D3"/>
<path d="M41.0544 57.3445C41.9439 56.3924 42.7472 55.3857 43.3656 54.3368C43.4201 54.2197 43.4718 54.1015 43.5205 53.9821C43.9136 52.9932 44.5749 52.0574 45.242 51.1681C44.5749 52.0574 43.9681 52.9809 43.5635 53.9726C43.4371 54.286 43.2825 54.5886 43.1016 54.8769C42.467 55.7345 41.7876 56.5612 41.0659 57.354C41.7129 56.3255 42.522 55.4471 43.1461 54.4363C43.2336 54.2222 43.3569 53.9603 43.4445 53.7652C43.8863 52.7763 44.5161 51.8119 45.3252 51.2076C46.2993 50.5434 47.4929 50.9976 48.4483 51.4477C48.5272 51.4245 48.6707 51.2527 48.8213 51.1394C49.0466 51.0153 49.2589 50.9226 49.4712 50.8475C50.5199 50.4874 51.56 50.6866 52.5283 50.6375C51.4323 50.8325 50.3391 50.8925 49.256 51.2281C49.0394 51.2963 48.7969 51.3727 48.5502 51.4641C48.8213 51.4068 49.0824 51.3495 49.3191 51.2936C51.4337 50.7698 53.4537 50.2992 55.5883 49.5885C56.3501 49.3744 56.5538 50.2337 56.0359 50.7657C55.739 51.0467 55.1149 50.9594 54.97 51.194C54.7606 51.5787 55.1766 52.052 55.1465 52.4844C55.1323 52.6855 55.1275 52.8871 55.1321 53.0887C55.1465 53.6875 55.2197 54.2918 55.0948 54.8797C54.8438 55.9941 54.4421 57.2135 53.633 58.3211C53.5482 58.4657 53.4799 58.6184 53.4293 58.7767C53.1983 59.4288 53.1151 60.2254 52.6646 60.9333C52.5909 61.1254 52.5081 61.3143 52.4164 61.4994C52.5197 61.3057 52.646 61.097 52.7392 60.9019C53.2428 60.0971 53.5024 59.1873 53.8181 58.4603C53.884 58.3143 54.006 58.0183 54.0461 57.9774C54.4278 56.9557 54.8409 55.9272 55.1694 54.8592C55.4463 55.6913 55.7275 56.5302 56.079 57.3677C56.2124 57.5927 56.3286 57.7578 56.3917 57.8287C56.6686 58.1179 56.7446 58.5326 56.4032 59.0154C55.7505 59.9171 54.3173 60.6414 53.1553 61.2648C52.9774 61.3602 52.7392 61.5226 52.5814 61.6494C51.8986 62.2182 51.8383 63.3408 51.4639 64.3912C51.3878 64.5971 51.1698 64.9109 51.154 65.035C50.1613 65.848 49.0537 66.9406 48.061 67.2188C46.8373 67.6253 45.5619 67.0647 44.4645 66.68C44.3339 66.6077 44.2134 66.545 44.1288 66.4863C43.8347 66.3049 43.6223 66.0444 43.4416 65.7538C43.3957 65.6788 43.3211 65.5697 43.2422 65.451C42.6999 64.533 41.6512 63.7801 41.7488 62.7093C41.852 61.7013 43.3526 60.6946 42.7386 59.7698C42.6874 59.5873 42.5713 59.4273 42.4101 59.3169C41.7746 58.834 41.3557 58.0865 40.9913 57.3718C40.9884 57.3759 41.0673 57.354 41.0544 57.3445Z" fill="#D4D3D3"/>
<path d="M41.4921 59.0129C42.0401 58.221 42.4897 57.3715 42.8321 56.4812C42.8579 56.3762 42.8808 56.278 42.8923 56.2016C43.0315 55.4214 43.4002 54.6398 43.7818 53.8936C43.4002 54.6411 43.0745 55.4036 42.9267 56.188C42.898 56.3448 42.8636 56.5263 42.713 56.9164C42.34 57.6298 41.9569 58.3391 41.5022 59.0225C41.8407 58.1795 42.3429 57.4183 42.6685 56.5863C42.7001 56.4185 42.7531 56.2112 42.7876 56.0529C42.9698 55.2672 43.3026 54.4734 43.8564 53.9168C44.5335 53.288 45.5951 53.4435 46.4616 53.6358C46.5204 53.6086 46.6094 53.464 46.7112 53.3617C46.8748 53.2348 47.0297 53.1366 47.1904 53.0534C47.988 52.636 48.8746 52.6333 49.6579 52.4559C48.8 52.7588 47.9091 52.9606 47.0842 53.3617C46.9164 53.4449 46.7342 53.5322 46.5491 53.6358C46.7629 53.554 46.9651 53.4749 47.1445 53.3999C48.7856 52.7097 50.3537 52.0754 51.969 51.246C52.5572 50.9828 52.8814 51.5789 52.5572 52.0426C52.3664 52.2909 51.8385 52.3182 51.7624 52.5105C51.662 52.8229 52.0867 53.1066 52.1483 53.4312C52.1684 53.5813 52.2057 53.7272 52.2459 53.8759C52.3693 54.3124 52.5371 54.738 52.5457 55.1922C52.5457 56.0379 52.4453 56.99 51.9848 57.9162C51.9427 58.0326 51.9145 58.1536 51.9002 58.2791C51.837 58.7878 51.9159 59.3812 51.6821 59.9664C51.6505 60.1137 51.6171 60.2628 51.5817 60.4138C51.6262 60.2569 51.6907 60.0891 51.7309 59.9323C51.9934 59.2707 52.0365 58.5696 52.1641 57.9926C52.1885 57.8767 52.2402 57.6407 52.2617 57.6025C52.3836 56.8032 52.5328 55.9929 52.6031 55.1636C52.9876 55.7324 53.3706 56.3012 53.8139 56.8659C53.9631 57.0091 54.0865 57.1142 54.1568 57.1551C54.4337 57.3283 54.5728 57.6202 54.3878 58.024C54.0205 58.7742 52.9718 59.5149 52.134 60.1396C52.0106 60.2351 51.8456 60.3892 51.7395 60.5024C51.2862 61.0181 51.4411 61.8447 51.3321 62.6672C51.3091 62.8322 51.1872 63.09 51.1929 63.1828C50.5344 63.9221 49.83 64.8783 49.0611 65.2275C48.1358 65.6995 46.9881 65.4771 46.0169 65.3503C45.9099 65.326 45.8046 65.296 45.7013 65.2602C45.4368 65.1673 45.1979 65.0185 45.0026 64.8251C44.9538 64.7787 44.8692 64.7092 44.786 64.6314C44.1677 64.0381 43.1692 63.6425 43.0501 62.8418C42.9483 62.0943 43.9883 61.1436 43.3213 60.5502C43.2374 60.4231 43.1141 60.3239 42.9683 60.2665C42.3529 60.0073 41.8737 59.5231 41.4434 59.0497C41.4462 59.047 41.5036 59.0211 41.4921 59.0129Z" fill="#D4D3D3"/>
<path d="M32.1052 54.0068C30.8915 54.3847 29.7065 55.1554 28.6966 56.0229C28.4656 56.222 28.1471 56.4771 27.9104 56.694C26.9234 57.3392 25.8618 57.8534 24.8188 58.425C25.3447 59.8553 25.9053 61.2738 26.5002 62.6794C27.0669 63.978 27.777 65.5057 28.2633 66.3133C29.0495 67.6241 29.9016 68.9227 30.9216 70.0889C30.5802 69.6756 31.7967 70.8132 31.9216 70.9319C32.4409 71.423 32.9086 71.9263 33.2916 72.5047C33.9099 71.7831 34.4924 71.1488 35.2642 70.9346C35.5382 70.8651 35.9384 70.7969 36.2153 70.7751C38.0473 70.64 40.2924 70.5282 41.6582 69.767C42.3741 69.3496 42.5362 68.789 42.3683 68.2761C42.3091 68.0304 42.2716 67.7803 42.2564 67.5286C42.331 66.2873 42.4989 65.0897 42.6667 63.888C42.3052 64.2745 41.9384 64.6509 41.5664 65.0174C41.9202 64.6364 42.2492 64.2554 42.5534 63.8743C43.0698 63.2046 43.3481 62.4189 43.7039 61.6578C43.8201 61.4041 43.9435 61.1558 44.0884 60.913C44.3911 60.3851 44.1601 59.568 44.6637 59.2011C44.9908 58.9897 45.7152 59.4412 46.259 59.2598C47.2302 58.8778 47.5013 57.6966 46.4168 57.537C44.6727 57.3624 42.9361 57.1258 41.2106 56.8277C40.225 56.3707 39.2323 55.8278 38.0071 55.7201C37.6786 55.6949 37.3484 55.6968 37.0201 55.7255C36.7662 55.7828 36.4778 55.9151 36.3702 55.9015C35.4449 54.8048 34.2413 53.5826 32.6145 53.8691C32.4437 53.9073 32.2831 53.9509 32.1181 54.0068C32.2601 53.9264 32.3978 53.85 32.5427 53.7722C32.3945 53.8495 32.2486 53.9277 32.1052 54.0068ZM39.3499 67.159C39.2782 67.1917 38.9368 67.4945 38.7689 67.6405C37.9225 68.3716 37.0445 69.3633 35.9212 70.0889C35.6902 70.2813 35.4033 70.4722 35.1523 70.6537C35.3803 70.4745 35.6009 70.287 35.8136 70.0917C36.8049 69.4533 37.4017 68.5039 38.0846 67.8164C38.252 67.6437 38.4303 67.4918 38.6197 67.3608C39.3674 66.944 40.0616 66.446 40.6884 65.8768C40.2389 66.3051 39.7927 66.7325 39.3499 67.159ZM37.5065 56.0761C38.4002 56.1798 39.2423 56.3966 40.0801 56.6326C39.2366 56.4908 38.3959 56.3353 37.5438 56.1879C37.1874 56.1233 36.8321 56.0537 36.4778 55.9792C36.8422 56.0038 37.1923 56.0406 37.5065 56.0761Z" fill="#D4D3D3"/>
<path d="M62.0265 68.654C62.5157 69.7834 64.4495 70.1094 64.8899 68.8572C65.4609 66.773 66.1639 64.7964 66.9113 62.8418C67.7032 61.861 68.6142 60.8803 69.0876 59.7154C69.1306 59.5881 69.176 59.4608 69.2239 59.3334C69.243 59.2752 69.2602 59.2175 69.2755 59.1602C69.3673 58.8001 69.4147 58.4304 69.429 58.0185C69.3673 57.7184 69.1937 57.3829 69.2339 57.256C69.5208 57.1032 69.8178 56.945 70.1061 56.7759C70.5466 55.4814 70.9726 54.1774 71.3657 52.8583C71.6082 52.0481 71.8549 51.2392 72.0859 50.4221C71.5517 49.6855 70.9387 49.0035 70.2568 48.387C69.9684 48.1087 69.5926 47.7431 69.264 47.469C67.9858 45.8758 67.1552 44.1284 65.8985 42.5025C65.8697 42.4518 65.8443 42.3994 65.8224 42.3456C65.7851 42.3592 65.8282 42.231 65.8282 42.231C64.0005 42.2338 62.0408 42.2965 60.3537 42.8517C59.949 43.0024 59.5108 43.0535 59.0798 43.0004C56.5391 43.2063 56.2321 40.3132 54.3385 39.4375C52.3099 38.5167 49.6258 39.4838 47.1855 39.5916L46.3592 39.6598C45.573 39.7089 44.817 39.8249 44.1198 40.1181C43.8625 40.2208 43.6098 40.3337 43.3623 40.4564C41.3481 41.7536 38.8003 43.1763 38.2308 45.2251C37.6627 46.862 38.5837 49.2463 39.0915 51.2637C39.3139 51.3756 39.6897 51.9144 40.0254 52.1777C41.6867 53.4776 43.8616 54.3779 44.226 55.7746C44.2948 56.0952 44.345 56.5549 44.3422 56.8768C44.2762 58.9952 44.1026 61.5937 45.1627 63.1801C45.7495 64.0203 46.659 64.214 47.5399 64.0326C47.7651 63.9835 48.2199 63.9426 48.8152 63.9112C50.8796 64.0121 52.868 64.2222 54.8477 64.4282C54.2605 64.0098 53.6886 63.5834 53.132 63.1487C53.7096 63.5643 54.2964 63.9498 54.8922 64.3054C55.9266 64.9124 57.2019 65.2439 58.4199 65.6599C58.823 65.8018 59.2261 65.9532 59.6034 66.1237C60.4384 66.4783 61.85 66.2273 62.378 66.8139C62.685 67.1876 61.8027 68.0238 62.0265 68.654ZM68.5668 58.6146C68.716 58.2367 68.8939 57.818 69.0861 57.387C68.9886 57.8125 68.8738 58.2163 68.7591 58.5737C68.4463 59.6103 67.9428 60.5761 67.4134 61.5432C67.795 60.5734 68.1809 59.6035 68.5668 58.6146ZM49.9027 60.5488C49.8539 60.4615 49.412 60.0659 49.1897 59.8736C48.0965 58.8833 46.5873 57.8562 45.5429 56.5481C45.2503 56.2739 44.9762 55.9424 44.7137 55.6478C44.9882 55.9188 45.2703 56.1757 45.5601 56.4185C46.4668 57.5793 47.9602 58.2818 49.0032 59.0756C49.2643 59.2802 49.4938 59.4794 49.6817 59.7017C50.2803 60.5954 51.0048 61.4068 51.8351 62.1134C51.1852 61.5964 50.5411 61.0658 49.9027 60.5488Z" fill="#D4D3D3"/>
<path d="M62.0068 41.7576C63.0268 43.1557 64.1903 44.4556 65.5431 45.521C65.7282 45.6355 65.896 45.7433 66.0409 45.8142C67.4296 46.5836 68.5716 47.683 69.6375 48.7728C68.5716 47.683 67.4239 46.6572 66.0223 45.8783C65.7454 45.7188 65.4241 45.5373 64.8144 45.0435C63.8073 43.9891 62.8332 42.9225 61.9767 41.7698C63.2822 42.8774 64.2305 44.1406 65.5187 45.2141C65.82 45.3846 66.1758 45.6096 66.4484 45.7829C67.8127 46.604 69.0177 47.6693 69.5112 48.8642C69.9918 50.2992 68.4826 51.7083 67.1198 52.8132C67.1083 52.9168 67.2991 53.1501 67.3909 53.3724C67.4569 53.6971 67.4798 53.9903 67.4598 54.285C67.3966 55.7281 66.4025 57.0021 65.8717 58.2652C66.2418 56.8125 66.8371 55.3817 66.9706 53.9058C67.0019 53.5823 67.021 53.2579 67.0279 52.9332C66.9486 53.3051 66.883 53.6507 66.8314 53.9699C66.3451 56.8207 65.8444 59.5379 65.6694 62.4611C65.536 63.5032 63.9809 63.5318 63.4156 62.7298C63.1359 62.2715 63.6853 61.4885 63.3841 61.2498C62.8733 60.8706 61.8275 61.2784 61.1174 61.1311C60.7908 61.0494 60.4586 60.9897 60.1232 60.9524C59.1132 60.8078 58.0689 60.741 57.1651 60.43C55.4622 59.8121 53.6833 58.9718 52.352 57.6337C52.1578 57.487 51.9488 57.359 51.7279 57.2518C50.7883 56.7934 49.5086 56.4688 48.6163 55.7077C48.3475 55.5597 48.0862 55.3999 47.833 55.2289C48.0869 55.4226 48.3581 55.6367 48.622 55.8059C49.6478 56.6639 50.9963 57.2408 51.9991 57.8383C52.2085 57.9597 52.6188 58.1998 52.6676 58.2598C54.1237 59.0209 55.5727 59.823 57.145 60.5309C55.5528 60.6532 53.9645 60.8183 52.3821 61.0261C52.0546 61.0995 51.7329 61.1948 51.4195 61.3112C50.761 61.5853 50.0236 61.5717 49.4254 61.0111C48.348 59.9403 48.0496 57.8942 47.7555 56.2396C47.6947 55.9537 47.6019 55.6748 47.4786 55.4076C46.9651 54.3777 45.1302 54.0053 43.6267 53.2401C43.3212 53.0873 42.9453 52.7299 42.7516 52.6808C42.0243 51.1913 40.911 49.4767 41.076 48.1263C41.1865 46.4499 42.9295 44.9617 44.2737 43.6563C44.4703 43.5049 44.6553 43.3712 44.806 43.2744C45.2966 42.9443 45.8604 42.741 46.4644 42.5842C46.6179 42.5433 46.8532 42.4805 47.0999 42.4123C48.9692 41.9608 50.8959 40.8109 52.6188 41.2229C54.2327 41.6184 54.95 43.8132 56.8868 43.2771C57.3343 43.2389 57.6055 43.1121 57.8537 42.9716C59.0645 42.2827 60.5737 41.9444 62.0011 41.6689C61.9982 41.6703 61.9781 41.7698 62.0068 41.7576Z" fill="#D4D3D3"/>
<path d="M61.0815 77.0319C59.284 77.3811 57.211 78.0672 55.029 78.1968C54.534 78.2745 53.9774 78.3209 53.471 78.3755C53.953 78.3045 54.4212 78.2168 54.8755 78.1122C56.8036 78.0058 58.4491 77.1601 59.9841 76.7345C60.3561 76.6341 60.7361 76.5625 61.1203 76.5204C61.346 76.524 61.5703 76.5204 61.7931 76.5094C62.07 75.7824 62.4831 75.1318 62.9924 74.5848C63.0168 74.5098 63.0326 74.4334 63.0599 74.3556C63.2222 73.9 63.4403 73.4642 63.7097 73.057C63.809 72.3007 64.1086 71.5807 64.5805 70.9646C65.021 70.3931 65.4313 69.8011 65.7569 69.1681C65.6866 69.2554 66.3078 67.7755 66.3695 67.5913C66.8831 66.0813 67.335 64.5481 67.8773 63.0477C68.2522 62.0219 68.6237 60.9948 68.9919 59.9663C68.6778 59.7003 68.3507 59.4111 68.0092 59.111C68.3794 59.3538 68.7194 59.5925 69.0436 59.8313L69.2229 59.3034C69.1406 59.2603 69.0569 59.2198 68.9719 59.182C68.5702 59.0633 68.0551 59.0196 67.9232 58.9132C67.5946 56.6817 66.9763 54.0409 64.4859 53.1638C64.2204 53.0892 63.9524 53.0228 63.6825 52.9646C63.9464 52.9674 64.2018 52.9674 64.4658 52.9728C64.1999 52.9665 63.934 52.9628 63.6681 52.9619C61.664 52.5391 59.3658 52.6741 57.211 53.0779C56.7189 53.1679 56.0604 53.2797 55.5411 53.3957C52.8828 53.5607 50.2532 53.2688 47.5533 53.3984C47.476 53.3932 47.3989 53.385 47.3223 53.3739C47.3166 53.4025 47.1774 53.2988 47.1774 53.2988C46.2521 54.8252 45.3368 56.4852 45.1948 58.1971C45.1718 58.5368 45.0972 58.9064 44.7357 59.3375C43.7071 61.5568 39.8939 60.1995 37.8281 61.273C35.636 62.4407 35.5055 65.2138 34.3994 67.2953C34.2746 67.5831 34.1541 67.8518 34.0695 68.0223C33.7352 68.6975 33.4956 69.4 33.5214 70.1353C33.5157 70.3576 33.5387 70.6495 33.5616 70.9578C34.1799 73.353 34.6964 76.2748 37.0075 77.8994C38.7864 79.2921 42.2739 79.8609 45.0786 80.577C45.3382 80.4474 46.2148 80.4393 46.7054 80.311C49.2002 79.6658 51.431 78.3605 53.3863 78.8447C53.8325 78.9634 54.4322 79.1775 54.8468 79.3644C56.0332 79.9277 57.3329 80.5593 58.6341 81.0845C58.7876 80.944 58.9383 80.813 59.0989 80.6889C59.261 80.4693 59.426 80.2647 59.6125 80.0737C59.9023 79.4176 60.3054 78.8351 60.8004 78.3345C60.9739 77.8353 61.2164 77.3688 61.5048 76.9418C61.3643 76.9725 61.2232 77.0002 61.0815 77.0251" fill="#D4D3D3"/>
<path d="M63.0038 74.5765C63.0282 74.5015 63.0411 74.4306 63.0683 74.3528C63.229 73.889 63.4557 73.4498 63.7182 73.0542C63.8175 72.2979 64.1171 71.5779 64.589 70.9618C65.0294 70.3903 65.4397 69.7983 65.7654 69.1653C65.6951 69.2526 66.3163 67.7727 66.3779 67.5885C66.8915 66.0785 67.3434 64.5453 67.8857 63.0449L68.1382 62.3506C67.6586 62.0808 67.1819 61.8066 66.7079 61.5281C65.6908 60.5227 64.688 59.3988 63.2591 58.7045C62.8756 58.5249 62.4774 58.3753 62.0684 58.2571C61.7442 58.2107 61.3525 58.2352 61.2249 58.1616C60.5205 56.417 59.4976 54.3682 57.439 53.9699C57.2271 53.9376 57.0135 53.9166 56.7991 53.9071H56.7934C55.2038 53.8075 53.5081 54.1977 51.9817 54.7747C51.6389 54.9152 51.1611 55.0775 50.7968 55.2343C48.8414 55.6899 46.82 55.7731 44.8259 56.2042C44.7647 56.2042 44.7059 56.206 44.6495 56.2096C44.6524 56.2369 44.529 56.1687 44.529 56.1687C44.156 57.5055 43.8246 58.9459 44.0814 60.3413C44.157 60.6687 44.1203 61.0105 43.9767 61.3166C43.6768 63.2222 40.5394 62.5865 39.2224 63.7037C37.8265 64.8986 38.3129 67.1507 37.9313 68.9566L37.8366 69.5746C37.7261 70.1693 37.6917 70.7504 37.871 71.341C37.9112 71.5197 37.9901 71.7543 38.0762 71.9944C39.0502 73.8481 40.0516 76.1343 42.1174 77.1559C43.7443 78.0562 46.4743 78.0944 48.7252 78.3276C48.8887 78.1926 49.5415 78.0835 49.8901 77.9184C51.6145 77.1 53.0046 75.7878 54.5712 75.9297C54.9255 75.9733 55.4262 76.077 55.7691 76.1725C57.4877 76.6962 59.4919 77.3469 61.1919 77.4874C61.3517 77.1868 61.5404 76.901 61.7557 76.6335C62.0282 75.8505 62.4558 75.1535 63.0038 74.5765ZM62.5361 59.0578C62.1602 58.835 61.7604 58.5867 61.3368 58.313C61.7643 58.5121 62.1717 58.7181 62.5332 58.9077C63.5704 59.4438 64.5001 60.0999 65.4168 60.7724C64.4642 60.2063 63.5102 59.6348 62.5332 59.0578M54.5368 75.5354C54.8763 75.419 55.2048 75.2922 55.5223 75.1549C56.9411 74.8425 57.9927 73.9627 59.0529 73.443C59.3207 73.3048 59.5894 73.2007 59.8591 73.1306C60.8937 72.9707 61.903 72.6875 62.8632 72.2877C62.176 72.6027 61.486 72.911 60.806 73.2248C60.7055 73.2357 60.1905 73.4444 59.9409 73.5398C58.667 74.0418 57.2611 74.8384 55.6514 75.2081C55.3028 75.3308 54.8954 75.4372 54.5368 75.5354Z" fill="#D4D3D3"/>
<path d="M56.1194 43.674C54.6705 43.985 53.2746 44.3997 52.0121 44.9698C51.883 45.0375 51.7567 45.1098 51.6334 45.1867C50.6091 45.8387 49.3854 46.2752 48.1832 46.6681C49.3854 46.2752 50.5488 45.8128 51.5846 45.1703C51.7926 45.0408 52.0322 44.9016 52.6104 44.6424C53.7605 44.2595 54.9297 43.9304 56.1137 43.6562C54.8397 44.1869 53.5185 44.4829 52.2732 45.0053C52.0523 45.1472 51.7654 45.3081 51.5545 45.4295C50.4886 46.0474 49.2721 46.5344 48.1387 46.5835C46.8131 46.5862 46.0471 45.4486 45.4904 44.4597C45.4058 44.4365 45.1634 44.5006 44.951 44.5115C44.6871 44.4894 44.4258 44.4442 44.1706 44.3765C42.9828 44.0614 42.1823 43.247 41.2727 42.7C42.3874 43.1911 43.4146 43.8077 44.6153 44.1637C44.8535 44.2387 45.1232 44.3178 45.4101 44.3833C45.1203 44.2669 44.8516 44.1628 44.6039 44.0709C42.3444 43.2498 40.2154 42.4395 37.8196 41.7766C36.9818 41.5024 37.3864 40.609 38.2099 40.4412C38.6632 40.3689 39.1667 40.834 39.4522 40.7072C39.9056 40.493 39.8482 39.8178 40.1666 39.4372C40.3216 39.2667 40.455 39.0881 40.5884 38.9012C40.9815 38.3569 41.3258 37.769 41.8337 37.3189C42.8135 36.4704 43.9913 35.6138 45.4704 35.1132C45.6377 35.0341 45.7994 34.9391 45.9553 34.8281C46.6094 34.3862 47.2163 33.7205 48.1 33.3604C48.2965 33.2281 48.4916 33.1108 48.7068 33.0003C48.4873 33.1081 48.2291 33.2199 48.0139 33.3413C47.0169 33.7533 46.1733 34.4135 45.3958 34.8772C45.2394 34.9645 44.9281 35.1582 44.8635 35.1705C43.8349 35.8594 42.7661 36.525 41.7519 37.2861C42.0603 36.375 42.3759 35.4461 42.627 34.4789C42.6557 34.1952 42.6672 33.9783 42.6557 33.8747C42.6012 33.4436 42.8178 33.029 43.4476 32.8012C44.6426 32.3892 46.4201 32.6088 47.8848 32.7602C48.11 32.7848 48.4342 32.7848 48.6624 32.763C49.6551 32.6702 50.4714 31.7004 51.5158 30.9883C51.718 30.8424 52.1312 30.6978 52.2273 30.5928C53.6619 30.4659 55.3992 30.1617 56.4795 30.515C57.8581 30.8997 58.6199 32.1805 59.3487 33.1967C59.4147 33.3386 59.485 33.4709 59.518 33.5759C59.6614 33.9183 59.6801 34.2852 59.6428 34.6535C59.6322 34.7853 59.6236 34.9171 59.617 35.0491C59.4835 36.2031 59.9225 37.5208 59.1105 38.4279C58.333 39.2627 56.3073 39.2572 56.227 40.4616C56.1557 40.658 56.1537 40.8711 56.2213 41.0686C56.4666 41.8953 56.336 42.8214 56.1868 43.6863C56.1868 43.6863 56.1022 43.6576 56.1079 43.674" fill="#D4D3D3"/>
<path d="M56.8495 41.9131C55.7922 42.3141 54.7952 42.7929 53.9373 43.3685C53.8516 43.4377 53.7688 43.5101 53.6891 43.5854C53.0392 44.1979 52.1842 44.6753 51.3335 45.1131C52.1842 44.6753 52.9919 44.1869 53.6503 43.5745C53.778 43.4504 53.933 43.3071 54.3361 43.0493C55.1524 42.6401 55.9744 42.2336 56.8466 41.8926C55.9715 42.4478 55.006 42.8215 54.1481 43.3699C54.009 43.5049 53.8196 43.6577 53.6862 43.7791C52.9933 44.3752 52.1584 44.8853 51.2818 45.0449C50.2475 45.1991 49.4039 44.4107 48.7512 43.7095C48.678 43.6959 48.5016 43.775 48.3438 43.805C48.1299 43.8178 47.9153 43.8123 47.7025 43.7886C46.7069 43.6782 45.9092 43.1353 45.0815 42.8229C46.0584 43.0753 46.9938 43.4326 48.0066 43.5759C48.2132 43.6077 48.4356 43.635 48.6737 43.6577C48.425 43.5986 48.1922 43.5463 47.9751 43.5008C46.0412 43.1244 44.2021 42.737 42.1936 42.4983C41.4878 42.3741 41.5983 41.6416 42.2051 41.4234C42.5437 41.3156 43.0372 41.6157 43.2337 41.4861C43.5307 41.2638 43.3427 40.7496 43.5077 40.4263C43.5895 40.2749 43.6555 40.1207 43.7215 39.9652C43.9008 39.4987 44.0385 39.0118 44.3369 38.6012C44.9065 37.8455 45.6424 37.0516 46.6825 36.4992C46.7953 36.4192 46.9015 36.3278 47.001 36.225C47.4027 35.8076 47.7326 35.2252 48.3366 34.8405C48.4657 34.725 48.5962 34.6113 48.7282 34.4995C48.5805 34.6127 48.4126 34.7218 48.2663 34.8378C47.5834 35.277 47.0727 35.8758 46.5677 36.3178C46.4576 36.4214 46.3417 36.5193 46.2205 36.611C45.5707 37.2535 44.8921 37.8905 44.2681 38.5944C44.3025 37.8496 44.347 37.1048 44.3283 36.3219C44.304 36.1634 44.2652 36.0073 44.2121 35.8554C44.0758 35.5253 44.1519 35.1788 44.5908 34.9319C45.4258 34.4818 46.8704 34.4531 48.0425 34.404C48.2218 34.3986 48.47 34.3576 48.6436 34.3276C49.4011 34.1353 49.8128 33.295 50.4727 32.6267C50.6047 32.4916 50.8887 32.332 50.9433 32.242C52.035 31.9815 53.3118 31.5532 54.24 31.7087C55.3934 31.8464 56.2728 32.7494 57.059 33.456C57.1508 33.5583 57.2325 33.6511 57.2842 33.7315C57.4664 33.9784 57.5611 34.2567 57.6127 34.55C57.6285 34.6182 57.6586 34.7368 57.683 34.8514C57.8322 35.7612 58.4634 36.7311 58.0316 37.5222C57.6184 38.2561 56.0375 38.4757 56.2441 39.4182C56.2292 39.5825 56.2726 39.7468 56.3675 39.8847C56.7405 40.4945 56.8509 41.2201 56.9169 41.909C56.9184 41.9144 56.8524 41.9008 56.8552 41.9199" fill="#D4D3D3"/>
<path d="M61.9122 52.1408C63.2607 52.5446 64.8416 52.5732 66.335 52.4068C66.6779 52.3741 67.1355 52.3345 67.4942 52.2881C68.8198 52.3072 70.1195 52.4914 71.4437 52.6169C71.9228 51.0073 72.4034 49.3964 72.8037 47.7636C73.1738 46.255 73.5626 44.4449 73.6702 43.4259C73.8495 41.7673 73.9585 40.0772 73.8251 38.4076C73.8567 38.9901 73.531 37.2236 73.498 37.0436C73.3529 36.3013 73.2947 35.546 73.3244 34.7915C72.2872 35.0684 71.3346 35.2771 70.4925 35.0002C70.1622 34.8775 69.8418 34.7316 69.5342 34.5637C67.7969 33.5721 65.7024 32.3021 63.9579 32.148C63.0326 32.088 62.509 32.4917 62.3139 33.0551C62.2043 33.3143 62.0703 33.5636 61.9136 33.7999C61.0084 34.8652 60.0501 35.8432 59.0903 36.8185C59.6713 36.6944 60.2595 36.5798 60.8391 36.4775C60.2667 36.5989 59.7086 36.7435 59.1807 36.8976C58.264 37.1854 57.4807 37.7188 56.6501 38.1921C56.377 38.3537 56.0927 38.4978 55.7993 38.6231C55.1753 38.9164 54.8281 39.788 54.1295 39.8098C53.6962 39.8044 53.3404 38.9532 52.7365 38.7882C51.6046 38.544 50.5645 39.4306 51.431 40.2409C52.9402 41.4958 54.3002 42.7657 55.63 44.0507C56.2068 45.0614 56.7361 46.1568 57.7647 47.0066C58.0244 47.2125 58.3128 47.4103 58.6571 47.6013C58.9268 47.705 59.2754 47.7622 59.3586 47.8427C59.4475 49.3895 59.7072 51.2228 61.3627 51.9621C61.5392 52.0317 61.7156 52.089 61.9007 52.1449C61.7218 52.1313 61.5425 52.1145 61.3627 52.0944C61.5454 52.1135 61.7285 52.1308 61.9122 52.1463M64.2778 35.9059C64.3653 35.9196 64.876 35.8596 65.1214 35.8255C66.3752 35.6904 67.8371 35.3317 69.3362 35.3672C69.6734 35.3371 70.055 35.3344 70.4079 35.329C70.0731 35.349 69.7484 35.3826 69.4338 35.4299C68.1125 35.3972 66.9347 35.8855 65.8573 36.086C65.599 36.1396 65.3356 36.168 65.0712 36.1706C64.1169 36.0908 63.1563 36.1146 62.2077 36.2415C62.903 36.1324 63.593 36.0205 64.2778 35.9059ZM58.4533 46.9929C57.7231 46.3545 57.1091 45.6439 56.5181 44.9237C57.1794 45.5675 57.8293 46.2168 58.4964 46.8715C58.7517 47.128 59.0315 47.4076 59.3141 47.709C59.0042 47.4649 58.713 47.218 58.4533 46.9929Z" fill="#D4D3D3"/>
<path d="M77.3213 25.7888C77.3213 21.1552 63.3698 17.3972 46.1603 17.3972C28.9465 17.3972 14.9922 21.1552 14.9922 25.7888C14.9941 25.9743 15.0171 26.1585 15.061 26.3413C15.0168 26.5736 14.9937 26.8091 14.9922 27.0451L25.6183 80.869C25.6183 81.2319 25.6714 81.5756 25.7632 81.9071C25.7574 81.963 25.746 82.023 25.746 82.0776C25.746 85.088 34.8872 87.5269 46.1603 87.5269C57.4291 87.5269 66.5689 85.088 66.5689 82.0776C66.5689 82.023 66.5603 81.963 66.5546 81.9071C66.6495 81.5684 66.6982 81.2195 66.6995 80.869L77.3213 27.0451C77.3213 26.8041 77.2983 26.5695 77.2524 26.3413C77.2983 26.1585 77.3213 25.9743 77.3213 25.7888ZM55.0663 37.5319C58.1206 37.2345 60.9109 36.7899 63.3153 36.2251L61.9797 42.9322H54.6589L55.0663 37.5319ZM54.4193 46.1513H61.3355L60.1735 51.9758H53.9832L54.4193 46.1513ZM53.7407 55.2004H59.5222L58.3903 60.8776H53.3061L53.7336 55.2004M38.9945 60.8776H33.9131L32.7769 55.2004H38.5727L39.0002 60.8776M38.3288 51.9758H32.1414L30.9765 46.1513H37.8898L38.3288 51.9758ZM37.2428 37.5319L37.6474 42.9322H30.3352L28.9982 36.2251C31.4011 36.7899 34.1914 37.2345 37.2428 37.5319ZM19.9989 31.9611C19.9989 31.7611 20.0181 31.5651 20.0563 31.3732C20.392 32.7687 22.2427 34.0536 25.1649 35.1148L26.7975 42.9322H22.1638L19.9989 31.9652M22.7978 46.1554H27.466L28.6797 51.9799H23.9484L22.7978 46.1554ZM25.7043 60.8816L24.5839 55.2045H29.354L30.5418 60.8816H25.7043ZM26.3399 64.1049H31.2103L32.424 69.9294H27.4904L26.3399 64.1049ZM32.4785 80.528C32.0103 80.5282 31.5467 80.4406 31.114 80.2703C30.6814 80.1001 30.2884 79.8504 29.9573 79.5356C29.6262 79.2208 29.3636 78.8471 29.1845 78.4357C29.0054 78.0244 28.9134 77.5835 28.9135 77.1384L28.1274 73.1499H33.0968L34.6362 80.528H32.4785ZM34.5558 64.1049H39.2312L39.6702 69.9294H35.7179L34.5558 64.1049ZM37.8325 80.528L36.362 73.1499H39.9126L40.4678 80.528H37.8325ZM48.6723 80.528H43.6282L43.1376 73.1499H49.1644L48.6723 80.528ZM49.3767 69.9266H42.9224L42.5351 64.1022H49.7655L49.3796 69.9266M49.9807 60.8803H42.3242L41.9483 55.2031H50.3551L49.9807 60.8803ZM50.5703 51.9785H41.7317L41.3472 46.154H50.9562L50.5703 51.9785ZM51.1714 42.9349H41.1335L40.7935 37.8061C42.5236 37.9016 44.3154 37.9575 46.156 37.9575C47.9866 37.9575 49.7812 37.9016 51.5114 37.8088L51.1714 42.9349ZM54.471 80.528H51.8327L52.3908 73.1499H55.9443L54.471 80.528ZM52.6332 69.9266L53.0665 64.1022H57.7505L56.5856 69.9266H52.6332ZM63.3927 77.137C63.392 78.0358 63.0161 78.8975 62.3477 79.533C61.6793 80.1686 60.773 80.5259 59.8278 80.5266H57.673L59.2094 73.1485H64.1789L63.3927 77.137ZM64.813 69.9266H59.8808L61.0945 64.1022H65.9635L64.813 69.9266ZM66.5991 60.8803H61.7688L62.9523 55.2031H67.7195L66.5991 60.8803ZM68.355 51.9785H63.6237L64.8374 46.154H69.5056L68.355 51.9785ZM70.1411 42.9349H65.5088L67.1414 35.1175C70.0622 34.0577 71.9143 32.7714 72.25 31.376C72.2844 31.5683 72.3088 31.7634 72.3088 31.9639L70.1411 42.9308" fill="#A7A9AC"/>
<path d="M72.3101 25.4177C72.3101 28.705 60.4245 31.3731 45.7686 31.3731C31.1127 31.3731 19.2271 28.705 19.2271 25.4177C19.2271 22.1235 31.1127 19.4568 45.7686 19.4568C60.4245 19.4568 72.3101 22.1235 72.3101 25.4177Z" fill="#D4D3D3"/>
<path d="M36.1493 28.1335C35.2656 28.8537 35.5195 30.5315 36.7791 30.5315C38.8306 30.4046 40.8118 30.4114 42.7944 30.466C43.9033 30.8343 45.0539 31.2953 46.2374 31.3499H46.6262C46.6836 31.3508 46.741 31.349 46.7984 31.3444C47.1455 31.3171 47.4984 31.2517 47.8772 31.1412C48.1282 31.0089 48.3807 30.7702 48.5055 30.7702C48.7222 30.9598 48.9531 31.1576 49.1884 31.3444C50.49 31.3369 51.7914 31.3078 53.092 31.2571C53.8925 31.2217 54.6915 31.1889 55.4963 31.1466C55.9985 30.526 56.4432 29.8167 56.819 29.0719C56.9783 28.7568 57.2035 28.3435 57.357 27.9943C58.4373 26.4966 59.7729 25.3222 60.8876 23.8272C60.9277 23.7899 60.9679 23.7549 61.0081 23.7221C60.9851 23.6949 61.1128 23.6949 61.1128 23.6949C60.5892 22.1971 59.9737 20.6176 58.9867 19.3981C58.7364 19.1094 58.5662 18.7657 58.4918 18.3983C57.5851 16.3822 60.1072 15.3046 60.3553 13.5095C60.6078 11.5917 58.9666 9.67519 58.1747 7.71096C58.06 7.45725 57.9438 7.21035 57.8778 7.05485C57.6081 6.42603 57.2853 5.84085 56.8262 5.36071C56.6585 5.17831 56.4824 5.00309 56.2983 4.83555C54.5596 3.56017 52.5425 1.88239 50.5312 2.00379C48.8914 2.00379 47.0006 3.44286 45.325 4.43179C45.2877 4.64868 44.9061 5.10699 44.767 5.45346C44.0626 7.18444 43.8718 9.21687 42.7155 9.91526C42.4077 10.0806 42.0845 10.2185 41.75 10.3272C39.8147 10.8742 37.4175 11.4757 36.2842 12.7948C35.6946 13.515 35.7778 14.3116 36.1967 14.9813C36.3043 15.1491 36.4735 15.5092 36.6715 15.9866C37.165 17.7067 37.5438 19.3872 37.9225 21.0636C38.1334 20.4648 38.3615 19.8769 38.5953 19.2972C38.3816 19.8878 38.2022 20.4812 38.0487 21.0636C37.7948 22.0826 37.8608 23.2229 37.8292 24.3346C37.8202 24.7011 37.7938 25.067 37.7503 25.4313C37.67 26.217 38.2998 27.3 37.9211 27.8988C37.67 28.2521 36.6586 27.7747 36.1565 28.1335M47.0953 30.6119C47.4827 30.6274 47.9025 30.6519 48.3549 30.6856C47.967 30.7208 47.578 30.7445 47.1886 30.7565C46.1657 30.7947 45.1428 30.661 44.12 30.5042C45.1041 30.5383 46.0911 30.5765 47.0953 30.6119ZM40.017 15.9102C40.0801 15.8475 40.3125 15.3701 40.4273 15.1327C41.0054 13.9624 41.5047 12.4278 42.3927 11.2043C42.5606 10.8919 42.7772 10.5727 42.9651 10.2726C42.7973 10.5727 42.6495 10.8742 42.5089 11.1825C41.7227 12.2546 41.5147 13.6773 41.093 14.7563C40.9946 15.0121 40.8697 15.2579 40.72 15.4901C40.0842 16.2342 39.5585 17.0575 39.1577 17.9372C39.4417 17.2566 39.733 16.5841 40.017 15.9102Z" fill="#D4D3D3"/>
<path d="M60.4516 20.4375C59.4746 21.6706 58.6368 22.9924 58.0601 24.4014C58.0085 24.5878 57.9659 24.7506 57.9324 24.8898C57.6383 26.247 56.9698 27.4937 56.2884 28.6723C56.9698 27.4937 57.568 26.2606 57.8736 24.8952C57.9367 24.6238 58.007 24.31 58.2839 23.6703C58.9481 22.545 59.6296 21.4455 60.4301 20.4184C59.8089 21.7961 58.9309 22.9351 58.3298 24.295C58.2595 24.5883 58.1562 24.9457 58.0874 25.2144C57.7287 26.5634 57.109 27.8525 56.1679 28.5986C55.0116 29.4007 53.3116 28.5686 51.9215 27.772C51.8239 27.7911 51.6661 28.0161 51.4939 28.1539C51.2397 28.2899 50.9696 28.397 50.6891 28.4731C49.3664 28.8305 47.9275 28.3831 46.6393 28.3081C48.0552 28.1948 49.5228 28.2753 50.8928 27.9589C51.1625 27.8961 51.4696 27.8238 51.7823 27.7311C51.4294 27.772 51.0951 27.8156 50.7953 27.8634C48.0782 28.2862 45.4787 28.6491 42.7859 29.3406C41.809 29.5302 41.337 28.2658 41.9022 27.5769C42.2322 27.2195 43.0958 27.4419 43.2321 27.1268C43.4257 26.6044 42.7572 25.8637 42.6884 25.243C42.6677 24.9522 42.6275 24.6628 42.5679 24.3769C42.4115 23.5121 42.1748 22.6391 42.1977 21.8084C42.2723 20.2452 42.5219 18.551 43.3483 17.0833C43.4229 16.8964 43.4745 16.6877 43.5161 16.4627C43.6653 15.561 43.5879 14.4275 44.024 13.4795C44.0814 13.2217 44.1445 12.9639 44.2263 12.7047C44.1287 12.9653 44.0125 13.249 43.9379 13.5122C43.453 14.5939 43.3196 15.8584 43.0657 16.8528C43.014 17.056 42.9136 17.4598 42.8749 17.5171C42.6037 18.9234 42.291 20.3379 42.1002 21.8247C41.5278 20.5835 40.9597 19.3354 40.2911 18.075C40.1289 17.8279 39.9502 17.591 39.756 17.3657C39.3199 16.9101 39.1234 16.3031 39.4605 15.6552C40.1219 14.4657 41.8821 13.6405 43.2909 12.9271C43.5018 12.8139 43.7858 12.6215 43.9695 12.4633C44.7499 11.7499 44.562 10.1444 44.8216 8.69716C44.8704 8.40525 45.0913 7.99604 45.0841 7.82008C46.2218 6.80386 47.4512 5.40299 48.7194 5.15473C50.2674 4.76189 52.108 5.76446 53.6702 6.49013C53.8625 6.60471 54.0375 6.72066 54.168 6.8175C54.6056 7.12169 54.9513 7.52681 55.2669 7.97422C55.3415 8.0888 55.4692 8.2593 55.6012 8.44072C56.5423 9.84432 58.1318 11.0856 58.2538 12.6106C58.3542 14.0442 56.5782 15.2582 57.6182 16.6864C57.7775 17.0383 57.9712 17.2252 58.1677 17.3875C59.1361 18.1814 59.872 19.3163 60.5291 20.4007C60.5305 20.4007 60.4315 20.4184 60.4516 20.4375Z" fill="#D4D3D3"/>
<path d="M28.311 29.7582C27.4818 28.3942 26.2725 26.8896 25.5351 25.1436C25.3213 24.7644 25.119 24.3225 24.9254 23.9242C25.131 24.2979 25.3448 24.6548 25.5666 24.9949C26.2079 26.539 27.4445 27.6426 28.2594 28.7802C28.4645 29.0625 28.6439 29.3463 28.7758 29.6423C28.8399 29.8287 28.9083 30.0119 28.981 30.192C29.7184 30.2083 30.4156 30.3625 31.064 30.6203C31.1386 30.6175 31.2132 30.6094 31.2864 30.6094C31.7555 30.6094 32.2131 30.6694 32.6507 30.769C33.3629 30.6349 34.0992 30.6743 34.7911 30.8835C35.4324 31.0813 36.0794 31.2464 36.7508 31.3337C36.6518 31.3009 38.1667 31.3841 38.3518 31.3841C39.8624 31.3732 41.3731 31.3009 42.8837 31.3187L45.9896 31.3487C46.1398 31.0168 46.3038 30.668 46.4817 30.3025C46.3755 30.6555 46.2578 31.0053 46.1288 31.3514H46.6538C46.6691 31.2714 46.6825 31.1909 46.694 31.11C46.6854 30.7471 46.5764 30.3161 46.6366 30.1756C48.5604 29.2685 50.7683 28.0109 50.85 25.7261C50.8432 25.4873 50.8269 25.2489 50.8013 25.0113L51.0164 25.6538L50.7984 25.0004C50.6033 23.2421 49.8329 21.4021 48.8516 19.7556C48.6264 19.3819 48.3438 18.8745 48.0884 18.4844C47.1818 16.3578 46.6897 14.1276 45.8002 11.9574C45.7888 11.8919 45.7715 11.8251 45.7601 11.7596C45.7285 11.7651 45.783 11.6246 45.783 11.6246C44.1418 11.304 42.383 11.0285 40.7906 11.4022C40.409 11.5074 40.0017 11.4902 39.6315 11.3531C37.3289 11.1472 37.4738 7.64155 35.9072 6.25977C34.2316 4.80434 31.6866 5.485 29.4874 5.18354C29.1919 5.1549 28.9121 5.13989 28.7371 5.11807C28.0255 5.03486 27.3298 5.04032 26.6684 5.2722C26.4661 5.33222 26.2093 5.4318 25.9396 5.54092C23.9498 6.73583 21.4565 7.98802 20.6474 10.3369C19.8985 12.1879 20.3806 15.2011 20.5369 17.6959C20.7249 17.8746 20.9759 18.5826 21.2356 18.9509C22.5353 20.8019 24.3472 22.2573 24.4706 23.9883C24.4907 24.3839 24.4677 24.9418 24.419 25.3291C24.2511 26.4613 24.0488 27.7026 23.9455 28.9166C24.1158 28.9984 24.2793 29.088 24.4362 29.1853C24.6781 29.2508 24.9129 29.3313 25.1406 29.4267C25.8105 29.4758 26.4561 29.6409 27.0471 29.8987C27.5507 29.8987 28.0413 29.9642 28.509 30.0801C28.4358 29.9614 28.367 29.8455 28.311 29.7582Z" fill="#D4D3D3"/>
<path d="M31.0695 30.6135C31.1413 30.6107 31.2144 30.6025 31.2862 30.6025C31.7553 30.6025 32.2129 30.6598 32.6505 30.7621C33.3627 30.6281 34.099 30.6675 34.7909 30.8767C35.4322 31.0745 36.0792 31.2396 36.7506 31.3269C36.6516 31.2941 38.1665 31.3773 38.3516 31.3773C39.8622 31.3664 41.3728 31.2941 42.8835 31.3118C43.1168 31.3164 43.3512 31.3191 43.5864 31.32C43.6935 30.8508 43.805 30.3829 43.9207 29.9164C44.539 28.7979 45.2663 27.6576 45.4873 26.2922C45.5389 25.9498 45.5619 25.5924 45.5533 25.1914C45.5031 24.9104 45.3653 24.6007 45.394 24.4766C46.7741 23.3949 48.3321 21.9763 48.104 20.1853C48.0731 20.0021 48.0324 19.8204 47.982 19.6411C48.0681 19.7938 48.1499 19.9457 48.2274 20.0967C48.1467 19.942 48.0639 19.7883 47.9792 19.6356C47.6119 18.3084 46.7799 17.0371 45.8187 15.9554C45.5963 15.7099 45.3123 15.373 45.0669 15.1206C44.1 13.6529 43.4473 12.0229 42.4847 10.517L42.4301 10.3751C42.4043 10.386 42.4301 10.2646 42.4301 10.2646C41.1189 10.341 39.7202 10.4815 38.5295 11.0912C38.2956 11.2126 38.0274 11.3177 37.6285 11.2808C35.8138 11.5836 35.4938 8.83646 34.1095 8.07805C32.6246 7.28145 30.7353 8.31949 28.9937 8.52273L28.4069 8.6223C27.8403 8.69869 27.3023 8.84191 26.8203 9.15565C26.6363 9.26609 26.4578 9.38443 26.2851 9.5103C24.8893 10.8348 23.1132 12.3039 22.7775 14.2872C22.4246 15.8722 23.1706 18.1133 23.6039 20.0175C23.7717 20.1171 24.0543 20.6164 24.3025 20.8523C25.5392 22.0282 27.1215 22.792 27.4343 24.1111C27.4974 24.4125 27.5505 24.8517 27.5605 25.16C27.5777 26.715 27.5634 28.5333 27.922 29.9642C28.2424 30.0096 28.5523 30.0819 28.8516 30.1811C29.6142 30.18 30.369 30.3271 31.0695 30.6135ZM44.9593 25.8011C45.0512 25.4328 45.1674 25.0318 45.2879 24.6089C45.234 24.9924 45.1694 25.3745 45.0942 25.7547C44.9063 26.7546 44.5777 27.7053 44.2334 28.6479C44.4744 27.7094 44.7164 26.7605 44.9593 25.8011ZM27.7757 23.9719C27.9837 24.2202 28.1917 24.4507 28.4112 24.6703C29.0984 25.7411 30.1959 26.3481 30.9677 27.0656C31.1614 27.247 31.3349 27.4339 31.4741 27.6371C31.9332 28.4774 32.4898 29.203 33.1009 29.851C32.6189 29.379 32.1383 28.9002 31.6663 28.4364C31.629 28.3573 31.2962 27.9972 31.1341 27.8185C30.3164 26.9237 29.1945 26.0003 28.404 24.7917C28.1903 24.5407 27.9823 24.2379 27.78 23.9719" fill="#D4D3D3"/>
<path d="M57.0359 16.1736C56.343 15.081 55.5655 14.0553 54.6947 13.1877C54.595 13.1008 54.4911 13.0185 54.3834 12.9408C53.5054 12.2888 52.7594 11.4131 52.0607 10.5456C52.7594 11.4145 53.5097 12.2384 54.3862 12.8972C54.5627 13.0295 54.7621 13.1823 55.1566 13.5833C55.8223 14.4208 56.4693 15.2638 57.046 16.1655C56.2053 15.2747 55.5612 14.2803 54.7291 13.4101C54.5383 13.2696 54.3131 13.08 54.1409 12.9436C53.2787 12.252 52.4969 11.394 52.1267 10.4828C51.748 9.40115 52.5514 8.45041 53.2859 7.71382C53.2916 7.63744 53.1582 7.45602 53.0893 7.28551C53.0361 7.06305 53.0025 6.83674 52.9889 6.60895C52.9344 5.54908 53.4423 4.66382 53.6761 3.769C53.5513 4.81795 53.2859 5.83417 53.306 6.91722C53.3088 7.1341 53.3146 7.37827 53.3347 7.62789C53.3567 7.36054 53.3748 7.11046 53.3892 6.87766C53.4867 4.80158 53.6087 2.82917 53.5226 0.680801C53.5355 -0.0776086 54.4551 -0.00531413 54.841 0.620783C55.0347 0.972707 54.7621 1.51696 54.9558 1.71475C55.2828 2.02302 55.8811 1.78295 56.3071 1.93709C56.5051 2.00984 56.7055 2.07304 56.9083 2.12669C57.5151 2.29174 58.142 2.40496 58.7001 2.69004C59.7459 3.24794 60.8548 3.97224 61.7271 5.03347C61.8418 5.15078 61.9753 5.25308 62.1245 5.3513C62.7083 5.75233 63.4888 6.06333 64.0669 6.68124C64.2343 6.80219 64.3993 6.93313 64.5618 7.07409C64.3997 6.92268 64.2276 6.74671 64.0554 6.60485C63.3969 5.91328 62.5591 5.40722 61.9236 4.90662C61.7959 4.80158 61.5348 4.60516 61.5018 4.55469C60.588 3.9095 59.677 3.2302 58.7001 2.61502C59.6309 2.61872 60.5616 2.59051 61.4904 2.53045C61.7558 2.47316 61.9523 2.41723 62.0456 2.37904C62.4157 2.21399 62.8532 2.26855 63.2406 2.72005C63.955 3.57667 64.2577 5.09622 64.5432 6.33477C64.5891 6.52437 64.6795 6.78764 64.7598 6.96905C65.1328 7.75747 66.2446 8.14213 67.1857 8.79278C67.3708 8.92237 67.6204 9.21291 67.7409 9.26202C68.2674 10.4051 69.0349 11.7337 69.0249 12.7185C69.0708 13.9489 68.1354 14.9433 67.421 15.8285C67.3148 15.924 67.213 16.0154 67.1298 16.0754C66.8629 16.2896 66.5402 16.4055 66.1944 16.4846C66.1055 16.5037 65.9692 16.5406 65.83 16.5747C64.7469 16.797 63.681 17.5309 62.6337 17.1244C61.651 16.7343 61.0829 15.0756 59.9711 15.3579C59.7738 15.3535 59.5805 15.4115 59.4217 15.523C58.746 15.9595 57.8737 16.1191 57.0474 16.2391C57.0474 16.2391 57.0474 16.1627 57.0359 16.1709" fill="#D4D3D3"/>
<path d="M58.8405 16.2732C58.1748 15.523 57.4589 14.8478 56.69 14.309C56.6041 14.2586 56.5156 14.2126 56.4246 14.1712C55.6843 13.8138 55.0087 13.2491 54.366 12.683C55.0072 13.2491 55.6786 13.7702 56.4246 14.1357C56.5724 14.2067 56.7416 14.2926 57.0917 14.5449C57.7014 15.0947 58.2968 15.6498 58.8519 16.265C58.1016 15.7098 57.4891 15.0292 56.7488 14.4876C56.5867 14.4072 56.3959 14.298 56.2453 14.2217C55.5108 13.8261 54.8107 13.2873 54.4133 12.6203C53.98 11.8196 54.4535 10.9029 54.8996 10.1691C54.8939 10.1091 54.7719 9.98493 54.6959 9.8649C54.6218 9.69473 54.5661 9.51786 54.5295 9.33701C54.3444 8.4913 54.6041 7.68379 54.6543 6.91992C54.7031 7.78882 54.6443 8.65635 54.8064 9.52389C54.8408 9.69985 54.8752 9.89218 54.924 10.0927C54.9049 9.87172 54.8848 9.66756 54.8638 9.48024C54.6543 7.78882 54.4764 6.17515 54.1235 4.46464C54.0259 3.84945 54.7246 3.73078 55.0947 4.16182C55.2855 4.40871 55.1578 4.8984 55.3314 5.02117C55.614 5.20531 56.0243 4.90386 56.3687 4.94478C56.5245 4.96843 56.6838 4.98207 56.8464 4.9857C57.3198 5.00207 57.7989 4.97479 58.2551 5.10028C59.1044 5.34718 60.0341 5.72092 60.826 6.4125C60.9312 6.48434 61.045 6.54481 61.1674 6.59391C61.658 6.80261 62.2792 6.90628 62.7971 7.29094C62.9386 7.36187 63.0792 7.43689 63.2189 7.51601C63.0768 7.42598 62.9248 7.31822 62.7784 7.23638C62.1903 6.80261 61.5016 6.55436 60.9579 6.26927C60.8331 6.20812 60.7115 6.14121 60.5936 6.06876C59.826 5.71956 59.0571 5.34581 58.2422 5.0389C58.9386 4.86287 59.6282 4.66313 60.3095 4.44008C60.4466 4.37516 60.5781 4.2999 60.7026 4.21502C60.9565 4.01177 61.2908 3.97358 61.6408 4.25867C62.2849 4.81383 62.7239 5.98418 63.1055 6.92947C63.1629 7.07133 63.2662 7.26775 63.3508 7.39597C63.7353 7.96205 64.6133 8.06026 65.4052 8.40673C65.563 8.47493 65.7868 8.66181 65.8844 8.6809C66.4309 9.49933 67.1841 10.4228 67.3118 11.2221C67.5112 12.2029 66.9474 13.1809 66.5342 14.0266C66.4787 14.1158 66.4179 14.2018 66.352 14.2844C66.1798 14.4969 65.959 14.6695 65.7065 14.7891C65.6448 14.8218 65.5501 14.8764 65.4511 14.9323C64.6707 15.3143 63.9778 16.1081 63.14 15.9813C62.361 15.8531 61.7068 14.6241 60.9149 15.0592C60.762 15.0953 60.6259 15.1782 60.5276 15.2952C60.0814 15.7767 59.4559 16.0699 58.8548 16.3223C58.8606 16.325 58.8519 16.265 58.8405 16.2732Z" fill="#D4D3D3"/>
<path d="M51.0392 23.3251C51.0621 24.5391 51.4839 25.8418 52.0563 27.0176C52.1897 27.2863 52.3533 27.6492 52.501 27.9288C52.8597 29.0159 53.062 30.1317 53.3274 31.2475C54.9204 31.1917 56.5118 31.1002 58.1003 30.9733C59.5722 30.8438 61.3181 30.6487 62.2721 30.4455C63.82 30.1154 65.3794 29.7252 66.847 29.1401C66.3334 29.3297 67.834 28.5603 67.9918 28.4812C68.6388 28.1539 69.2787 27.8797 69.9759 27.701C69.4336 26.929 68.9688 26.2087 68.9803 25.4462C68.9918 25.1734 69.0377 24.7942 69.0979 24.535C69.5053 22.8314 70.0548 20.7607 69.6904 19.293C69.481 18.5182 68.9688 18.2086 68.4021 18.2086C68.263 18.2086 67.9804 18.1677 67.6174 18.0913C66.3923 17.6575 65.236 17.1515 64.0797 16.6454C64.3637 17.0874 64.6291 17.532 64.8917 17.9781C64.621 17.5564 64.3344 17.1442 64.0323 16.7423C63.513 16.078 62.8029 15.591 62.1444 15.0467C61.9225 14.8666 61.7104 14.6758 61.5089 14.4752C61.067 14.0469 60.179 14.0142 59.961 13.4481C59.839 13.0907 60.5104 12.5642 60.486 12.0199C60.3885 11.0228 59.2838 10.4267 58.8018 11.3665C58.1111 12.8989 57.3627 14.4071 56.5581 15.8884C55.8064 16.6468 54.9685 17.3915 54.4994 18.4732C54.3847 18.7447 54.29 19.0366 54.2111 19.3721C54.1939 19.6218 54.2426 19.9218 54.1967 20.0146C52.8238 20.5302 51.24 21.2668 51.0507 22.8273C51.0382 22.9909 51.0344 23.1546 51.0392 23.3183C50.9994 23.168 50.9625 23.0171 50.9287 22.8655C50.9622 23.0173 50.999 23.1705 51.0392 23.3251ZM66.3908 20.6216C66.4023 20.6994 66.6046 21.0977 66.7036 21.2927C67.1885 22.2762 67.923 23.3674 68.3247 24.5992C68.4481 24.8692 68.5585 25.1843 68.6647 25.4653C68.5508 25.2053 68.4264 24.9496 68.2917 24.6987C67.9459 23.6116 67.1655 22.7863 66.6763 21.9706C66.5539 21.7743 66.4534 21.5663 66.3765 21.35C66.1757 20.5488 65.8802 19.7718 65.4956 19.0338L66.3908 20.6271M54.7074 19.0338C55.0776 18.2536 55.5453 17.5511 56.0244 16.8609C55.6328 17.5839 55.2325 18.3027 54.828 19.0338C54.6612 19.3395 54.4881 19.6419 54.3086 19.9409C54.4392 19.6163 54.5798 19.308 54.7074 19.0338Z" fill="#D4D3D3"/>
</g>
<defs>
<clipPath id="clip0_10_2917">
<rect width="91.8144" height="87.299" fill="white" transform="translate(0.742188 0.536133)"/>
</clipPath>
</defs>
</svg>
